<svg width="9" height="7" viewBox="0 0 9 7" fill="none" xmlns="http://www.w3.org/2000/svg">
<g clip-path="url(#clip0_73_3990)">
<path d="M0.364168 1.39695C0.320173 1.44058 0.285252 1.4925 0.261422 1.5497C0.237592 1.6069 0.225323 1.66825 0.225323 1.73021C0.225323 1.79218 0.237592 1.85353 0.261422 1.91073C0.285252 1.96793 0.320173 2.01984 0.364168 2.06348L4.11927 5.81858C4.16313 5.86209 4.21515 5.89651 4.27234 5.91987C4.32953 5.94322 4.39076 5.95507 4.45254 5.95471C4.51431 5.95507 4.57555 5.94322 4.63274 5.91987C4.68993 5.89651 4.74195 5.86209 4.7858 5.81858L8.54091 2.06348C8.58468 2.01971 8.61939 1.96776 8.64308 1.91057C8.66676 1.85339 8.67896 1.79211 8.67896 1.73021C8.67896 1.66832 8.66676 1.60703 8.64308 1.54985C8.61939 1.49267 8.58468 1.44071 8.54091 1.39695C8.45252 1.30856 8.33265 1.2589 8.20765 1.2589C8.08265 1.2589 7.96277 1.30856 7.87438 1.39695L4.44785 4.82348L1.0307 1.39695C0.987063 1.35295 0.935148 1.31803 0.877949 1.2942C0.82075 1.27037 0.759398 1.2581 0.697433 1.2581C0.635468 1.2581 0.574116 1.27037 0.516917 1.2942C0.459718 1.31803 0.407803 1.35295 0.364168 1.39695V1.39695Z" fill="#1D1D1B"/>
</g>
<defs>
<clipPath id="clip0_73_3990">
<rect width="6.0287" height="8.44018" fill="white" transform="translate(8.66553 0.715027) rotate(90)"/>
</clipPath>
</defs>
</svg>
