<svg width="8" height="12" viewBox="0 0 8 12" fill="none" xmlns="http://www.w3.org/2000/svg">
<g clip-path="url(#clip0_6_262)">
<path d="M7.09511 0.197259C7.03721 0.134708 6.96832 0.0850591 6.89242 0.0511779C6.81651 0.0172968 6.7351 -0.000146913 6.65288 -0.000146921C6.57065 -0.000146928 6.48924 0.0172967 6.41333 0.0511779C6.33743 0.0850591 6.26854 0.134708 6.21064 0.197259L1.22766 5.53616C1.16993 5.59852 1.12426 5.67247 1.09326 5.75378C1.06226 5.83509 1.04655 5.92216 1.04703 6.00999C1.04655 6.09782 1.06226 6.18488 1.09326 6.26619C1.12426 6.3475 1.16993 6.42146 1.22766 6.48381L6.21064 11.8227C6.26871 11.8849 6.33766 11.9343 6.41354 11.968C6.48942 12.0016 6.57074 12.019 6.65287 12.019C6.73501 12.019 6.81633 12.0016 6.89221 11.968C6.96809 11.9343 7.03704 11.8849 7.09511 11.8227C7.2124 11.697 7.27829 11.5266 7.27829 11.3489C7.27829 11.1712 7.2124 11.0007 7.09511 10.8751L2.54815 6.00331L7.09511 1.14491C7.1535 1.08287 7.19983 1.00906 7.23146 0.927738C7.26308 0.846414 7.27936 0.759186 7.27936 0.671086C7.27936 0.582986 7.26308 0.495758 7.23146 0.414433C7.19983 0.333109 7.1535 0.259299 7.09511 0.197259Z" fill="black"/>
</g>
<defs>
<clipPath id="clip0_6_262">
<rect width="8" height="12" fill="white" transform="translate(8 12) rotate(-180)"/>
</clipPath>
</defs>
</svg>
