<svg width="18" height="18" viewBox="0 0 18 18" fill="none" xmlns="http://www.w3.org/2000/svg">
<g clip-path="url(#clip0_269_8506)">
<path d="M2.71993 18H15.2799C16.5966 18 17.6666 16.93 17.6666 15.6133V3.71998C17.6666 2.40332 16.5966 1.33331 15.2799 1.33331H14.3333V0.666654C14.3333 0.299983 14.0332 0 13.6666 0C13.2999 0 12.9999 0.299983 12.9999 0.666654V1.33331H4.99994V0.666654C4.99994 0.299983 4.6999 0 4.33323 0C3.96656 0 3.66658 0.299983 3.66658 0.666654V1.33331H2.71993C1.40326 1.33331 0.333252 2.40332 0.333252 3.71998V15.6133C0.333252 16.93 1.40326 18 2.71993 18ZM1.66662 3.71998C1.66662 3.14 2.13994 2.66667 2.71993 2.66667H3.66658V3.33333C3.66658 3.7 3.96656 3.99998 4.33323 3.99998C4.6999 3.99998 4.99989 3.7 4.99989 3.33333V2.66667H12.9999V3.33333C12.9999 3.7 13.2999 3.99998 13.6666 3.99998C14.0332 3.99998 14.3332 3.7 14.3332 3.33333V2.66667H15.2799C15.8598 2.66667 16.3332 3.14 16.3332 3.71998V15.6133C16.3332 16.1933 15.8598 16.6666 15.2799 16.6666H2.71993C2.13994 16.6666 1.66662 16.1933 1.66662 15.6133V3.71998Z" fill="white"/>
<path d="M5.16657 7.66664C5.6268 7.66664 5.99989 7.29355 5.99989 6.83332C5.99989 6.37309 5.6268 6 5.16657 6C4.70634 6 4.33325 6.37309 4.33325 6.83332C4.33325 7.29355 4.70634 7.66664 5.16657 7.66664Z" fill="white"/>
<path d="M8.83332 7.66664C9.29355 7.66664 9.66664 7.29355 9.66664 6.83332C9.66664 6.37309 9.29355 6 8.83332 6C8.37309 6 8 6.37309 8 6.83332C8 7.29355 8.37309 7.66664 8.83332 7.66664Z" fill="white"/>
<path d="M12.4998 7.66664C12.9601 7.66664 13.3331 7.29355 13.3331 6.83332C13.3331 6.37309 12.9601 6 12.4998 6C12.0396 6 11.6665 6.37309 11.6665 6.83332C11.6665 7.29355 12.0396 7.66664 12.4998 7.66664Z" fill="white"/>
<path d="M5.16657 11C5.6268 11 5.99989 10.6269 5.99989 10.1667C5.99989 9.70646 5.6268 9.33337 5.16657 9.33337C4.70634 9.33337 4.33325 9.70646 4.33325 10.1667C4.33325 10.6269 4.70634 11 5.16657 11Z" fill="white"/>
<path d="M8.83332 11C9.29355 11 9.66664 10.6269 9.66664 10.1667C9.66664 9.70646 9.29355 9.33337 8.83332 9.33337C8.37309 9.33337 8 9.70646 8 10.1667C8 10.6269 8.37309 11 8.83332 11Z" fill="white"/>
<path d="M12.4998 11C12.9601 11 13.3331 10.6269 13.3331 10.1667C13.3331 9.70646 12.9601 9.33337 12.4998 9.33337C12.0396 9.33337 11.6665 9.70646 11.6665 10.1667C11.6665 10.6269 12.0396 11 12.4998 11Z" fill="white"/>
<path d="M5.16657 14.3333C5.6268 14.3333 5.99989 13.9602 5.99989 13.4999C5.99989 13.0397 5.6268 12.6666 5.16657 12.6666C4.70634 12.6666 4.33325 13.0397 4.33325 13.4999C4.33325 13.9602 4.70634 14.3333 5.16657 14.3333Z" fill="white"/>
<path d="M8.83332 14.3333C9.29355 14.3333 9.66664 13.9602 9.66664 13.4999C9.66664 13.0397 9.29355 12.6666 8.83332 12.6666C8.37309 12.6666 8 13.0397 8 13.4999C8 13.9602 8.37309 14.3333 8.83332 14.3333Z" fill="white"/>
<path d="M12.4998 14.3333C12.9601 14.3333 13.3331 13.9602 13.3331 13.4999C13.3331 13.0397 12.9601 12.6666 12.4998 12.6666C12.0396 12.6666 11.6665 13.0397 11.6665 13.4999C11.6665 13.9602 12.0396 14.3333 12.4998 14.3333Z" fill="white"/>
</g>
<defs>
<clipPath id="clip0_269_8506">
<rect width="18" height="18" fill="white"/>
</clipPath>
</defs>
</svg>
