<svg width="11" height="9" viewBox="0 0 11 9" fill="none" xmlns="http://www.w3.org/2000/svg">
<path d="M10.8103 8.10345H0.189664C0.0849276 8.10345 0 8.01853 0 7.91379V1.08622C0 0.981482 0.0849276 0.896555 0.189664 0.896555H10.8103C10.9151 0.896555 11 0.981482 11 1.08622V7.91379C11 8.01855 10.9151 8.10345 10.8103 8.10345Z" fill="#F5F5F5"/>
<path d="M11 1.45096H0V1.08622C0 0.981482 0.0849276 0.896555 0.189664 0.896555H10.8103C10.9151 0.896555 11 0.981482 11 1.08622L11 1.45096Z" fill="#FF4B55"/>
<path d="M11 3.11406H0V3.66844H11V3.11406Z" fill="#FF4B55"/>
<path d="M11 2.00525H0V2.55963H11V2.00525Z" fill="#FF4B55"/>
<path d="M11 4.7772H0.189664C0.0849276 4.7772 0 4.69228 0 4.58754V4.2228H11V4.7772Z" fill="#FF4B55"/>
<path d="M11 6.44048H0V6.99486H11V6.44048Z" fill="#FF4B55"/>
<path d="M10.8103 8.10345H0.189664C0.0849276 8.10345 0 8.01852 0 7.91378V7.54907H11V7.91381C11 8.01854 10.9151 8.10345 10.8103 8.10345Z" fill="#FF4B55"/>
<path d="M11 5.33167H0V5.88605H11V5.33167Z" fill="#FF4B55"/>
<path d="M4.93103 0.896778H0.189664C0.0849277 0.896778 0 0.981684 0 1.08642V4.58773C0 4.69247 0.0849277 4.77739 0.189664 4.77739H4.93105C5.03579 4.77739 5.12071 4.69247 5.12071 4.58773V1.08642C5.12069 0.981684 5.03577 0.896778 4.93103 0.896778Z" fill="#41479B"/>
<path d="M0.53258 1.33195L0.574561 1.45785L0.70727 1.45886C0.724457 1.45901 0.731569 1.48093 0.717754 1.49113L0.610998 1.56998L0.651045 1.6965C0.656245 1.71287 0.637575 1.72645 0.623588 1.71644L0.515629 1.63929L0.40767 1.71646C0.393684 1.72645 0.375057 1.71289 0.380213 1.69652L0.42026 1.57L0.313504 1.49115C0.29969 1.48093 0.306801 1.45903 0.323989 1.45888L0.456698 1.45787L0.498678 1.33198C0.504092 1.31565 0.527123 1.31565 0.53258 1.33195Z" fill="#F5F5F5"/>
<path d="M0.53258 1.99045L0.574561 2.11635L0.70727 2.11736C0.724457 2.11751 0.731569 2.13942 0.717754 2.14963L0.610998 2.22847L0.651045 2.355C0.656245 2.37137 0.637575 2.38494 0.623588 2.37493L0.515629 2.29778L0.40767 2.37495C0.393684 2.38494 0.375057 2.37139 0.380213 2.35502L0.42026 2.2285L0.313504 2.14965C0.29969 2.13942 0.306801 2.11753 0.323989 2.11738L0.456698 2.11637L0.498678 1.99047C0.504092 1.97416 0.527123 1.97416 0.53258 1.99045Z" fill="#F5F5F5"/>
<path d="M0.53258 2.64903L0.574561 2.77493L0.70727 2.77594C0.724457 2.77609 0.731569 2.798 0.717754 2.80821L0.610998 2.88705L0.651045 3.01358C0.656245 3.02995 0.637575 3.04353 0.623588 3.03351L0.515629 2.95636L0.40767 3.03353C0.393684 3.04353 0.375057 3.02997 0.380213 3.0136L0.42026 2.88708L0.313504 2.80823C0.29969 2.798 0.306801 2.77611 0.323989 2.77596L0.456698 2.77495L0.498678 2.64905C0.504092 2.63274 0.527123 2.63274 0.53258 2.64903Z" fill="#F5F5F5"/>
<path d="M0.53258 3.30763L0.574561 3.43353L0.70727 3.43454C0.724457 3.43469 0.731569 3.4566 0.717754 3.46681L0.610998 3.54566L0.651045 3.67218C0.656245 3.68855 0.637575 3.70213 0.623588 3.69211L0.515629 3.61496L0.40767 3.69214C0.393684 3.70213 0.375057 3.68857 0.380213 3.6722L0.42026 3.54568L0.313504 3.46683C0.29969 3.4566 0.306801 3.43471 0.323989 3.43456L0.456698 3.43355L0.498678 3.30765C0.504092 3.29132 0.527123 3.29132 0.53258 3.30763Z" fill="#F5F5F5"/>
<path d="M0.53258 3.96621L0.574561 4.09211L0.70727 4.09312C0.724457 4.09327 0.731569 4.11518 0.717754 4.12539L0.610998 4.20424L0.651045 4.33076C0.656245 4.34713 0.637575 4.36071 0.623588 4.3507L0.515629 4.27355L0.40767 4.35072C0.393684 4.36071 0.375057 4.34715 0.380213 4.33078L0.42026 4.20426L0.313504 4.12541C0.29969 4.11518 0.306801 4.09329 0.323989 4.09314L0.456698 4.09213L0.498678 3.96623C0.504092 3.94988 0.527123 3.94988 0.53258 3.96621Z" fill="#F5F5F5"/>
<path d="M1.04375 1.65476L1.08573 1.78066L1.21844 1.78167C1.23563 1.78182 1.24274 1.80373 1.22892 1.81394L1.12217 1.89279L1.16221 2.01931C1.16741 2.03568 1.14874 2.04926 1.13476 2.03924L1.0268 1.96207L0.91884 2.03924C0.904853 2.04924 0.886227 2.03568 0.891383 2.01931L0.93143 1.89279L0.824674 1.81394C0.810859 1.80371 0.817971 1.78182 0.835158 1.78167L0.967867 1.78066L1.00985 1.65476C1.01524 1.63848 1.03831 1.63848 1.04375 1.65476Z" fill="#F5F5F5"/>
<path d="M1.04375 2.31336L1.08573 2.43926L1.21844 2.44027C1.23563 2.44042 1.24274 2.46233 1.22892 2.47254L1.12217 2.55138L1.16221 2.67791C1.16741 2.69428 1.14874 2.70785 1.13476 2.69784L1.0268 2.62067L0.91884 2.69784C0.904853 2.70783 0.886227 2.6943 0.891383 2.67791L0.93143 2.55138L0.824674 2.47254C0.810859 2.46231 0.817971 2.44042 0.835158 2.44027L0.967867 2.43926L1.00985 2.31336C1.01524 2.29705 1.03831 2.29705 1.04375 2.31336Z" fill="#F5F5F5"/>
<path d="M1.04375 2.97194L1.08573 3.09784L1.21844 3.09885C1.23563 3.099 1.24274 3.12091 1.22892 3.13112L1.12217 3.20996L1.16221 3.33649C1.16741 3.35286 1.14874 3.36644 1.13476 3.35642L1.0268 3.27925L0.91884 3.35642C0.904853 3.36641 0.886227 3.35286 0.891383 3.33649L0.93143 3.20996L0.824674 3.13112C0.810859 3.12089 0.817971 3.099 0.835158 3.09885L0.967867 3.09784L1.00985 2.97194C1.01524 2.95563 1.03831 2.95563 1.04375 2.97194Z" fill="#F5F5F5"/>
<path d="M1.04375 3.63052L1.08573 3.75642L1.21844 3.75743C1.23563 3.75758 1.24274 3.77949 1.22892 3.7897L1.12217 3.86854L1.16221 3.99507C1.16741 4.01144 1.14874 4.02502 1.13476 4.015L1.0268 3.93783L0.91884 4.015C0.904853 4.02499 0.886227 4.01144 0.891383 3.99507L0.93143 3.86854L0.824674 3.7897C0.810859 3.77947 0.817971 3.75758 0.835158 3.75743L0.967867 3.75642L1.00985 3.63052C1.01524 3.61423 1.03831 3.61423 1.04375 3.63052Z" fill="#F5F5F5"/>
<path d="M1.55492 1.33187L1.5969 1.45777L1.72961 1.45878C1.7468 1.45893 1.75391 1.48084 1.74009 1.49105L1.63334 1.5699L1.67338 1.69642C1.67858 1.71279 1.65991 1.72637 1.64593 1.71636L1.53797 1.63918L1.43001 1.71636C1.41602 1.72635 1.3974 1.71279 1.40255 1.69642L1.4426 1.5699L1.33584 1.49105C1.32203 1.48082 1.32914 1.45893 1.34633 1.45878L1.47904 1.45777L1.52102 1.33187C1.52643 1.31557 1.54948 1.31557 1.55492 1.33187Z" fill="#F5F5F5"/>
<path d="M1.55492 1.99045L1.5969 2.11635L1.72961 2.11736C1.7468 2.11751 1.75391 2.13942 1.74009 2.14963L1.63334 2.22847L1.67338 2.355C1.67858 2.37137 1.65991 2.38494 1.64593 2.37493L1.53797 2.29776L1.43001 2.37493C1.41602 2.38492 1.3974 2.37137 1.40255 2.355L1.4426 2.22847L1.33584 2.14963C1.32203 2.1394 1.32914 2.11751 1.34633 2.11736L1.47904 2.11635L1.52102 1.99045C1.52643 1.97416 1.54948 1.97416 1.55492 1.99045Z" fill="#F5F5F5"/>
<path d="M1.55492 2.64903L1.5969 2.77493L1.72961 2.77594C1.7468 2.77609 1.75391 2.798 1.74009 2.80821L1.63334 2.88705L1.67338 3.01357C1.67858 3.02995 1.65991 3.04352 1.64593 3.03351L1.53797 2.95634L1.43001 3.03351C1.41602 3.0435 1.3974 3.02995 1.40255 3.01357L1.4426 2.88705L1.33584 2.80821C1.32203 2.79798 1.32914 2.77609 1.34633 2.77594L1.47904 2.77493L1.52102 2.64903C1.52643 2.63274 1.54948 2.63274 1.55492 2.64903Z" fill="#F5F5F5"/>
<path d="M1.55492 3.30763L1.5969 3.43353L1.72961 3.43454C1.7468 3.43469 1.75391 3.4566 1.74009 3.46681L1.63334 3.54566L1.67338 3.67218C1.67858 3.68855 1.65991 3.70213 1.64593 3.69211L1.53797 3.61494L1.43001 3.69211C1.41602 3.70211 1.3974 3.68855 1.40255 3.67218L1.4426 3.54566L1.33584 3.46681C1.32203 3.45658 1.32914 3.43469 1.34633 3.43454L1.47904 3.43353L1.52102 3.30763C1.52643 3.29132 1.54948 3.29132 1.55492 3.30763Z" fill="#F5F5F5"/>
<path d="M1.55492 3.96621L1.5969 4.09211L1.72961 4.09312C1.7468 4.09327 1.75391 4.11518 1.74009 4.12539L1.63334 4.20424L1.67338 4.33076C1.67858 4.34713 1.65991 4.36071 1.64593 4.3507L1.53797 4.27352L1.43001 4.3507C1.41602 4.36069 1.3974 4.34713 1.40255 4.33076L1.4426 4.20424L1.33584 4.12539C1.32203 4.11516 1.32914 4.09327 1.34633 4.09312L1.47904 4.09211L1.52102 3.96621C1.52643 3.94988 1.54948 3.94988 1.55492 3.96621Z" fill="#F5F5F5"/>
<path d="M2.06615 1.65476L2.10813 1.78066L2.24084 1.78167C2.25803 1.78182 2.26514 1.80373 2.25132 1.81394L2.14457 1.89279L2.18461 2.01931C2.18981 2.03568 2.17114 2.04926 2.15716 2.03924L2.0492 1.96207L1.94124 2.03924C1.92725 2.04924 1.90863 2.03568 1.91378 2.01931L1.95383 1.89279L1.84707 1.81394C1.83326 1.80371 1.84037 1.78182 1.85756 1.78167L1.99027 1.78066L2.03225 1.65476C2.03764 1.63848 2.06071 1.63848 2.06615 1.65476Z" fill="#F5F5F5"/>
<path d="M2.06615 2.31336L2.10813 2.43926L2.24084 2.44027C2.25803 2.44042 2.26514 2.46233 2.25132 2.47254L2.14457 2.55138L2.18461 2.67791C2.18981 2.69428 2.17114 2.70785 2.15716 2.69784L2.0492 2.62067L1.94124 2.69784C1.92725 2.70783 1.90863 2.6943 1.91378 2.67791L1.95383 2.55138L1.84707 2.47254C1.83326 2.46231 1.84037 2.44042 1.85756 2.44027L1.99027 2.43926L2.03225 2.31336C2.03764 2.29705 2.06071 2.29705 2.06615 2.31336Z" fill="#F5F5F5"/>
<path d="M2.06615 2.97194L2.10813 3.09784L2.24084 3.09885C2.25803 3.099 2.26514 3.12091 2.25132 3.13112L2.14457 3.20996L2.18461 3.33649C2.18981 3.35286 2.17114 3.36644 2.15716 3.35642L2.0492 3.27925L1.94124 3.35642C1.92725 3.36641 1.90863 3.35286 1.91378 3.33649L1.95383 3.20996L1.84707 3.13112C1.83326 3.12089 1.84037 3.099 1.85756 3.09885L1.99027 3.09784L2.03225 2.97194C2.03764 2.95563 2.06071 2.95563 2.06615 2.97194Z" fill="#F5F5F5"/>
<path d="M2.06615 3.63052L2.10813 3.75642L2.24084 3.75743C2.25803 3.75758 2.26514 3.77949 2.25132 3.7897L2.14457 3.86854L2.18461 3.99507C2.18981 4.01144 2.17114 4.02502 2.15716 4.015L2.0492 3.93783L1.94124 4.015C1.92725 4.02499 1.90863 4.01144 1.91378 3.99507L1.95383 3.86854L1.84707 3.7897C1.83326 3.77947 1.84037 3.75758 1.85756 3.75743L1.99027 3.75642L2.03225 3.63052C2.03764 3.61423 2.06071 3.61423 2.06615 3.63052Z" fill="#F5F5F5"/>
<path d="M2.57734 1.33187L2.61932 1.45777L2.75203 1.45878C2.76922 1.45893 2.77633 1.48084 2.76251 1.49105L2.65576 1.5699L2.69581 1.69642C2.701 1.71279 2.68233 1.72637 2.66835 1.71636L2.56037 1.63918L2.45241 1.71636C2.43842 1.72635 2.4198 1.71279 2.42495 1.69642L2.465 1.5699L2.35824 1.49105C2.34443 1.48082 2.35154 1.45893 2.36873 1.45878L2.50144 1.45777L2.54342 1.33187C2.54885 1.31557 2.57191 1.31557 2.57734 1.33187Z" fill="#F5F5F5"/>
<path d="M2.57728 1.99045L2.61926 2.11635L2.75197 2.11736C2.76916 2.11751 2.77627 2.13942 2.76245 2.14963L2.6557 2.22847L2.69574 2.355C2.70094 2.37137 2.68227 2.38494 2.66829 2.37493L2.56031 2.29776L2.45235 2.37493C2.43836 2.38492 2.41973 2.37137 2.42489 2.355L2.46494 2.22847L2.35818 2.14963C2.34437 2.1394 2.35148 2.11751 2.36867 2.11736L2.50138 2.11635L2.54336 1.99045C2.54879 1.97416 2.57184 1.97416 2.57728 1.99045Z" fill="#F5F5F5"/>
<path d="M2.57728 2.64903L2.61926 2.77493L2.75197 2.77594C2.76916 2.77609 2.77627 2.798 2.76245 2.80821L2.6557 2.88705L2.69574 3.01357C2.70094 3.02995 2.68227 3.04352 2.66829 3.03351L2.56031 2.95634L2.45235 3.03351C2.43836 3.0435 2.41973 3.02995 2.42489 3.01357L2.46494 2.88705L2.35818 2.80821C2.34437 2.79798 2.35148 2.77609 2.36867 2.77594L2.50138 2.77493L2.54336 2.64903C2.54879 2.63274 2.57184 2.63274 2.57728 2.64903Z" fill="#F5F5F5"/>
<path d="M2.57728 3.30763L2.61926 3.43353L2.75197 3.43454C2.76916 3.43469 2.77627 3.4566 2.76245 3.46681L2.6557 3.54566L2.69574 3.67218C2.70094 3.68855 2.68227 3.70213 2.66829 3.69211L2.56031 3.61494L2.45235 3.69211C2.43836 3.70211 2.41973 3.68855 2.42489 3.67218L2.46494 3.54566L2.35818 3.46681C2.34437 3.45658 2.35148 3.43469 2.36867 3.43454L2.50138 3.43353L2.54336 3.30763C2.54879 3.29132 2.57184 3.29132 2.57728 3.30763Z" fill="#F5F5F5"/>
<path d="M2.57728 3.96621L2.61926 4.09211L2.75197 4.09312C2.76916 4.09327 2.77627 4.11518 2.76245 4.12539L2.6557 4.20424L2.69574 4.33076C2.70094 4.34713 2.68227 4.36071 2.66829 4.3507L2.56031 4.27352L2.45235 4.3507C2.43836 4.36069 2.41973 4.34713 2.42489 4.33076L2.46494 4.20424L2.35818 4.12539C2.34437 4.11516 2.35148 4.09327 2.36867 4.09312L2.50138 4.09211L2.54336 3.96621C2.54879 3.94988 2.57184 3.94988 2.57728 3.96621Z" fill="#F5F5F5"/>
<path d="M3.08849 1.65476L3.13047 1.78065L3.26318 1.78166C3.28037 1.78181 3.28748 1.80373 3.27366 1.81393L3.16691 1.89278L3.20695 2.0193C3.21215 2.03567 3.19348 2.04925 3.1795 2.03924L3.07154 1.96207L2.96358 2.03924C2.94959 2.04923 2.93097 2.03567 2.93612 2.0193L2.97617 1.89278L2.86941 1.81393C2.8556 1.80371 2.86271 1.78181 2.8799 1.78166L3.01261 1.78065L3.05459 1.65476C3.06002 1.63847 3.08305 1.63847 3.08849 1.65476Z" fill="#F5F5F5"/>
<path d="M3.08849 2.31336L3.13047 2.43926L3.26318 2.44027C3.28037 2.44042 3.28748 2.46233 3.27366 2.47254L3.16691 2.55138L3.20695 2.67791C3.21215 2.69428 3.19348 2.70785 3.1795 2.69784L3.07154 2.62067L2.96358 2.69784C2.94959 2.70783 2.93097 2.6943 2.93612 2.67791L2.97617 2.55138L2.86941 2.47254C2.8556 2.46231 2.86271 2.44042 2.8799 2.44027L3.01261 2.43926L3.05459 2.31336C3.06002 2.29705 3.08305 2.29705 3.08849 2.31336Z" fill="#F5F5F5"/>
<path d="M3.08849 2.97194L3.13047 3.09784L3.26318 3.09885C3.28037 3.099 3.28748 3.12091 3.27366 3.13112L3.16691 3.20996L3.20695 3.33649C3.21215 3.35286 3.19348 3.36644 3.1795 3.35642L3.07154 3.27925L2.96358 3.35642C2.94959 3.36641 2.93097 3.35286 2.93612 3.33649L2.97617 3.20996L2.86941 3.13112C2.8556 3.12089 2.86271 3.099 2.8799 3.09885L3.01261 3.09784L3.05459 2.97194C3.06002 2.95563 3.08305 2.95563 3.08849 2.97194Z" fill="#F5F5F5"/>
<path d="M3.08849 3.63052L3.13047 3.75642L3.26318 3.75743C3.28037 3.75758 3.28748 3.77949 3.27366 3.7897L3.16691 3.86854L3.20695 3.99507C3.21215 4.01144 3.19348 4.02502 3.1795 4.015L3.07154 3.93783L2.96358 4.015C2.94959 4.02499 2.93097 4.01144 2.93612 3.99507L2.97617 3.86854L2.86941 3.7897C2.8556 3.77947 2.86271 3.75758 2.8799 3.75743L3.01261 3.75642L3.05459 3.63052C3.06002 3.61423 3.08305 3.61423 3.08849 3.63052Z" fill="#F5F5F5"/>
<path d="M3.59966 1.33187L3.64164 1.45777L3.77435 1.45878C3.79153 1.45893 3.79865 1.48084 3.78483 1.49104L3.67808 1.56989L3.71812 1.69641C3.72332 1.71279 3.70465 1.72636 3.69067 1.71635L3.58271 1.63918L3.47475 1.71635C3.46076 1.72634 3.44213 1.71279 3.44729 1.69641L3.48734 1.56989L3.38058 1.49104C3.36677 1.48082 3.37388 1.45893 3.39107 1.45878L3.52378 1.45777L3.56576 1.33187C3.57115 1.31556 3.59422 1.31556 3.59966 1.33187Z" fill="#F5F5F5"/>
<path d="M3.59966 1.99045L3.64164 2.11635L3.77435 2.11736C3.79153 2.11751 3.79865 2.13942 3.78483 2.14963L3.67808 2.22847L3.71812 2.355C3.72332 2.37137 3.70465 2.38494 3.69067 2.37493L3.58271 2.29776L3.47475 2.37493C3.46076 2.38492 3.44213 2.37137 3.44729 2.355L3.48734 2.22847L3.38058 2.14963C3.36677 2.1394 3.37388 2.11751 3.39107 2.11736L3.52378 2.11635L3.56576 1.99045C3.57115 1.97416 3.59422 1.97416 3.59966 1.99045Z" fill="#F5F5F5"/>
<path d="M3.59966 2.64903L3.64164 2.77493L3.77435 2.77594C3.79153 2.77609 3.79865 2.798 3.78483 2.80821L3.67808 2.88705L3.71812 3.01357C3.72332 3.02995 3.70465 3.04352 3.69067 3.03351L3.58271 2.95634L3.47475 3.03351C3.46076 3.0435 3.44213 3.02995 3.44729 3.01357L3.48734 2.88705L3.38058 2.80821C3.36677 2.79798 3.37388 2.77609 3.39107 2.77594L3.52378 2.77493L3.56576 2.64903C3.57115 2.63274 3.59422 2.63274 3.59966 2.64903Z" fill="#F5F5F5"/>
<path d="M3.59966 3.30763L3.64164 3.43353L3.77435 3.43454C3.79153 3.43469 3.79865 3.4566 3.78483 3.46681L3.67808 3.54566L3.71812 3.67218C3.72332 3.68855 3.70465 3.70213 3.69067 3.69211L3.58271 3.61494L3.47475 3.69211C3.46076 3.70211 3.44213 3.68855 3.44729 3.67218L3.48734 3.54566L3.38058 3.46681C3.36677 3.45658 3.37388 3.43469 3.39107 3.43454L3.52378 3.43353L3.56576 3.30763C3.57115 3.29132 3.59422 3.29132 3.59966 3.30763Z" fill="#F5F5F5"/>
<path d="M3.59966 3.96621L3.64164 4.09211L3.77435 4.09312C3.79153 4.09327 3.79865 4.11518 3.78483 4.12539L3.67808 4.20424L3.71812 4.33076C3.72332 4.34713 3.70465 4.36071 3.69067 4.3507L3.58271 4.27352L3.47475 4.3507C3.46076 4.36069 3.44213 4.34713 3.44729 4.33076L3.48734 4.20424L3.38058 4.12539C3.36677 4.11516 3.37388 4.09327 3.39107 4.09312L3.52378 4.09211L3.56576 3.96621C3.57115 3.94988 3.59422 3.94988 3.59966 3.96621Z" fill="#F5F5F5"/>
<path d="M4.11089 1.65476L4.15287 1.78065L4.28558 1.78166C4.30277 1.78181 4.30988 1.80373 4.29606 1.81393L4.18931 1.89278L4.22935 2.0193C4.23455 2.03567 4.21588 2.04925 4.2019 2.03924L4.09394 1.96207L3.98598 2.03924C3.97199 2.04923 3.95337 2.03567 3.95852 2.0193L3.99857 1.89278L3.89181 1.81393C3.878 1.80371 3.88511 1.78181 3.9023 1.78166L4.03501 1.78065L4.07699 1.65476C4.0824 1.63847 4.10547 1.63847 4.11089 1.65476Z" fill="#F5F5F5"/>
<path d="M4.11089 2.31336L4.15287 2.43926L4.28558 2.44027C4.30277 2.44042 4.30988 2.46233 4.29606 2.47254L4.18931 2.55138L4.22935 2.67791C4.23455 2.69428 4.21588 2.70785 4.2019 2.69784L4.09394 2.62067L3.98598 2.69784C3.97199 2.70783 3.95337 2.6943 3.95852 2.67791L3.99857 2.55138L3.89181 2.47254C3.878 2.46231 3.88511 2.44042 3.9023 2.44027L4.03501 2.43926L4.07699 2.31336C4.0824 2.29705 4.10547 2.29705 4.11089 2.31336Z" fill="#F5F5F5"/>
<path d="M4.11089 2.97194L4.15287 3.09784L4.28558 3.09885C4.30277 3.099 4.30988 3.12091 4.29606 3.13112L4.18931 3.20996L4.22935 3.33649C4.23455 3.35286 4.21588 3.36644 4.2019 3.35642L4.09394 3.27925L3.98598 3.35642C3.97199 3.36641 3.95337 3.35286 3.95852 3.33649L3.99857 3.20996L3.89181 3.13112C3.878 3.12089 3.88511 3.099 3.9023 3.09885L4.03501 3.09784L4.07699 2.97194C4.0824 2.95563 4.10547 2.95563 4.11089 2.97194Z" fill="#F5F5F5"/>
<path d="M4.11089 3.63052L4.15287 3.75642L4.28558 3.75743C4.30277 3.75758 4.30988 3.77949 4.29606 3.7897L4.18931 3.86854L4.22935 3.99507C4.23455 4.01144 4.21588 4.02502 4.2019 4.015L4.09394 3.93783L3.98598 4.015C3.97199 4.02499 3.95337 4.01144 3.95852 3.99507L3.99857 3.86854L3.89181 3.7897C3.878 3.77947 3.88511 3.75758 3.9023 3.75743L4.03501 3.75642L4.07699 3.63052C4.0824 3.61423 4.10547 3.61423 4.11089 3.63052Z" fill="#F5F5F5"/>
<path d="M4.62206 1.33187L4.66404 1.45777L4.79675 1.45878C4.81393 1.45893 4.82105 1.48084 4.80723 1.49104L4.70048 1.56989L4.74052 1.69641C4.74572 1.71279 4.72705 1.72636 4.71307 1.71635L4.60511 1.63918L4.49715 1.71635C4.48316 1.72634 4.46453 1.71279 4.46969 1.69641L4.50974 1.56989L4.40298 1.49104C4.38917 1.48082 4.39628 1.45893 4.41347 1.45878L4.54618 1.45777L4.58816 1.33187C4.59357 1.31556 4.6166 1.31556 4.62206 1.33187Z" fill="#F5F5F5"/>
<path d="M4.62206 1.99045L4.66404 2.11635L4.79675 2.11736C4.81393 2.11751 4.82105 2.13942 4.80723 2.14963L4.70048 2.22847L4.74052 2.355C4.74572 2.37137 4.72705 2.38494 4.71307 2.37493L4.60511 2.29776L4.49715 2.37493C4.48316 2.38492 4.46453 2.37137 4.46969 2.355L4.50974 2.22847L4.40298 2.14963C4.38917 2.1394 4.39628 2.11751 4.41347 2.11736L4.54618 2.11635L4.58816 1.99045C4.59357 1.97416 4.6166 1.97416 4.62206 1.99045Z" fill="#F5F5F5"/>
<path d="M4.62206 2.64903L4.66404 2.77493L4.79675 2.77594C4.81393 2.77609 4.82105 2.798 4.80723 2.80821L4.70048 2.88705L4.74052 3.01357C4.74572 3.02995 4.72705 3.04352 4.71307 3.03351L4.60511 2.95634L4.49715 3.03351C4.48316 3.0435 4.46453 3.02995 4.46969 3.01357L4.50974 2.88705L4.40298 2.80821C4.38917 2.79798 4.39628 2.77609 4.41347 2.77594L4.54618 2.77493L4.58816 2.64903C4.59357 2.63274 4.6166 2.63274 4.62206 2.64903Z" fill="#F5F5F5"/>
<path d="M4.62206 3.30763L4.66404 3.43353L4.79675 3.43454C4.81393 3.43469 4.82105 3.4566 4.80723 3.46681L4.70048 3.54566L4.74052 3.67218C4.74572 3.68855 4.72705 3.70213 4.71307 3.69211L4.60511 3.61494L4.49715 3.69211C4.48316 3.70211 4.46453 3.68855 4.46969 3.67218L4.50974 3.54566L4.40298 3.46681C4.38917 3.45658 4.39628 3.43469 4.41347 3.43454L4.54618 3.43353L4.58816 3.30763C4.59357 3.29132 4.6166 3.29132 4.62206 3.30763Z" fill="#F5F5F5"/>
<path d="M4.62206 3.96621L4.66404 4.09211L4.79675 4.09312C4.81393 4.09327 4.82105 4.11518 4.80723 4.12539L4.70048 4.20424L4.74052 4.33076C4.74572 4.34713 4.72705 4.36071 4.71307 4.3507L4.60511 4.27352L4.49715 4.3507C4.48316 4.36069 4.46453 4.34713 4.46969 4.33076L4.50974 4.20424L4.40298 4.12539C4.38917 4.11516 4.39628 4.09327 4.41347 4.09312L4.54618 4.09211L4.58816 3.96621C4.59357 3.94988 4.6166 3.94988 4.62206 3.96621Z" fill="#F5F5F5"/>
</svg>
