<svg width="54" height="54" viewBox="0 0 54 54" fill="none" xmlns="http://www.w3.org/2000/svg">
<circle cx="27" cy="27" r="27" fill="url(#paint0_linear_373_6600)"/>
<path d="M37.2923 31.8356C37.2535 31.8033 32.8564 28.6749 31.6691 28.8663C31.0964 28.9675 30.7693 29.3584 30.113 30.1401C30.0074 30.2663 29.7529 30.5677 29.5564 30.7825C29.1416 30.6474 28.737 30.4827 28.3457 30.2897C26.3257 29.3063 24.6937 27.6743 23.7103 25.6543C23.5173 25.263 23.3526 24.8584 23.2175 24.4436C23.4331 24.2463 23.7352 23.9919 23.8643 23.8833C24.6423 23.2307 25.0325 22.9029 25.1337 22.3294C25.3412 21.1421 22.1967 16.7465 22.1644 16.7069C22.0212 16.5038 21.8347 16.3351 21.6183 16.2128C21.402 16.0906 21.1612 16.0179 20.9133 16C19.6388 16 16 20.7197 16 21.5154C16 21.5616 16.0667 26.2579 21.8579 32.1487C27.7421 37.9333 32.4384 38 32.4846 38C33.2795 38 38 34.3612 38 33.0867C37.9819 32.8388 37.9091 32.598 37.7867 32.3816C37.6643 32.1653 37.4955 31.9788 37.2923 31.8356ZM32.4032 36.5289C31.7667 36.4747 27.8213 35.9547 22.8933 31.114C18.0291 26.1618 17.5224 22.2099 17.4718 21.5975C18.433 20.0888 19.5939 18.717 20.9229 17.5195C20.9522 17.5488 20.9911 17.5928 21.0409 17.65C22.0601 19.0413 22.9381 20.5307 23.6619 22.0962C23.4265 22.333 23.1777 22.556 22.9168 22.7643C22.5121 23.0726 22.1406 23.4221 21.808 23.8071C21.7517 23.886 21.7117 23.9753 21.6902 24.0699C21.6686 24.1644 21.6661 24.2623 21.6826 24.3578C21.8378 25.0301 22.0755 25.6806 22.3903 26.2945C23.5181 28.6104 25.3894 30.4815 27.7055 31.609C28.3193 31.9242 28.9698 32.1622 29.6422 32.3174C29.7377 32.3343 29.8357 32.3319 29.9302 32.3104C30.0248 32.2889 30.1142 32.2486 30.1929 32.192C30.5793 31.8581 30.93 31.485 31.2394 31.0788C31.4697 30.8045 31.7769 30.4386 31.8935 30.3352C33.463 31.0582 34.9557 31.9373 36.3493 32.9591C36.4101 33.0104 36.4534 33.05 36.482 33.0757C35.2844 34.405 33.9123 35.5662 32.4032 36.5275V36.5289Z" fill="white"/>
<path d="M32.1333 26.265H33.6C33.5982 24.7096 32.9796 23.2184 31.8797 22.1186C30.7799 21.0187 29.2887 20.4001 27.7333 20.3983V21.865C28.8999 21.8661 30.0184 22.3301 30.8433 23.155C31.6682 23.9799 32.1321 25.0984 32.1333 26.265Z" fill="white"/>
<path d="M35.8 26.2653H37.2666C37.2637 23.7378 36.2584 21.3146 34.4712 19.5274C32.6839 17.7402 30.2608 16.7348 27.7333 16.7319V18.1986C29.8719 18.2011 31.9223 19.0518 33.4345 20.5641C34.9467 22.0763 35.7974 24.1266 35.8 26.2653Z" fill="white"/>
<defs>
<linearGradient id="paint0_linear_373_6600" x1="27" y1="0" x2="27" y2="54" gradientUnits="userSpaceOnUse">
<stop stop-color="#7E8489"/>
<stop offset="1" stop-color="#454545"/>
</linearGradient>
</defs>
</svg>
