<svg width="23" height="23" viewBox="0 0 23 23" fill="none" xmlns="http://www.w3.org/2000/svg">
<g clip-path="url(#clip0_434_18651)">
<path d="M20.9024 11.2254C20.8697 11.0482 20.7625 10.899 20.6086 10.8057C17.0652 8.69367 14.9857 8.2554 13.4658 7.93835C13.27 7.89639 13.0788 7.85909 12.897 7.81713L12.2396 2.41337C12.2163 1.21979 11.2371 0.25 10.0389 0.25C8.85464 0.25 7.89884 1.16384 7.83823 2.33877C7.83823 2.36208 7.83357 2.38073 7.83357 2.40404V5.58382L7.78228 13.3468L6.94304 12.6987C6.77986 12.5588 5.64222 11.6403 4.23417 11.6403C3.28303 11.6403 2.43913 12.0413 1.72578 12.8246C1.52529 13.0437 1.50664 13.3701 1.67915 13.6125C1.73977 13.6965 3.18512 15.72 5.45106 17.7807C6.79384 18.9976 8.14595 19.9721 9.47008 20.6761C11.1579 21.5713 12.8084 22.0329 14.3796 22.0469C14.4029 22.0469 14.4309 22.0469 14.4542 22.0469C16.5989 22.0469 18.2681 21.3382 19.4151 19.9441C21.9701 16.8389 20.9443 11.4538 20.9024 11.2254ZM18.4406 19.1515C17.5454 20.2425 16.2026 20.7927 14.4542 20.7927C14.4309 20.7927 14.4123 20.7927 14.3889 20.7927C11.2698 20.7694 8.2765 18.648 6.31828 16.8716C4.75636 15.4542 3.57676 14.0275 3.03592 13.3281C3.40425 13.0437 3.80056 12.9038 4.23883 12.9038C5.25058 12.9038 6.12712 13.6545 6.13178 13.6638C6.1411 13.6731 6.15509 13.6825 6.16442 13.6918L8.02473 15.1232C8.21589 15.2677 8.46766 15.2957 8.68679 15.1884C8.90126 15.0859 9.03648 14.8667 9.04114 14.6289L9.10175 5.59315V2.44601C9.10175 2.44134 9.10175 2.43202 9.10175 2.42736C9.11574 1.91449 9.53069 1.51352 10.0436 1.51352C10.5658 1.51352 10.9854 1.9378 10.9854 2.45533C10.9854 2.47864 10.9854 2.50662 10.99 2.52993L11.6941 8.39993C11.7267 8.65637 11.9085 8.86618 12.1556 8.93145C12.4913 9.02004 12.8364 9.09464 13.2047 9.16924C14.678 9.47696 16.5057 9.86394 19.7134 11.7382C19.872 12.8199 20.3242 16.8622 18.4406 19.1515Z" fill="black"/>
</g>
<defs>
<clipPath id="clip0_434_18651">
<rect width="21.7969" height="21.7969" fill="white" transform="translate(0.453125 0.25)"/>
</clipPath>
</defs>
</svg>
