<svg width="22" height="22" viewBox="0 0 22 22" fill="none" xmlns="http://www.w3.org/2000/svg">
<path d="M17.2222 10H4.77778C3.79594 10 3 10.7326 3 11.6364V17.3636C3 18.2674 3.79594 19 4.77778 19H17.2222C18.2041 19 19 18.2674 19 17.3636V11.6364C19 10.7326 18.2041 10 17.2222 10Z" stroke="white" stroke-width="1.5" stroke-linecap="round" stroke-linejoin="round"/>
<path d="M7 10V6.44444C7 5.2657 7.42143 4.13524 8.17157 3.30175C8.92172 2.46825 9.93913 2 11 2C12.0609 2 13.0783 2.46825 13.8284 3.30175C14.5786 4.13524 15 5.2657 15 6.44444V10" stroke="white" stroke-width="1.5" stroke-linecap="round" stroke-linejoin="round"/>
</svg>
