<svg width="14" height="14" viewBox="0 0 14 14" fill="none" xmlns="http://www.w3.org/2000/svg">
<path d="M1.23047 2.07812H12.7695C13.4494 2.07812 14 2.63216 14 3.30859V10.6914C14 11.3719 13.4453 11.9219 12.7695 11.9219H1.23047C0.556309 11.9219 0 11.3742 0 10.6914V3.30859C0 2.63337 0.548433 2.07812 1.23047 2.07812ZM1.40279 2.89844C1.65419 3.1485 5.98054 7.45207 6.12992 7.60066C6.36234 7.83308 6.67133 7.96105 7 7.96105C7.32867 7.96105 7.63766 7.83305 7.87084 7.59989C7.9713 7.49995 12.2499 3.2439 12.5972 2.89844H1.40279ZM13.1797 10.5244V3.47607L9.6349 7.00219L13.1797 10.5244ZM12.5967 11.1016L9.0533 7.5807L8.45012 8.1807C8.06277 8.56805 7.54778 8.78136 7 8.78136C6.45222 8.78136 5.93723 8.56805 5.55064 8.18147L4.9467 7.5807L1.40331 11.1016H12.5967ZM0.820312 10.5244L4.3651 7.00219L0.820312 3.47607V10.5244Z" fill="black"/>
</svg>
