<svg width="16" height="28" viewBox="0 0 16 28" fill="none" xmlns="http://www.w3.org/2000/svg">
<path d="M5.39954 14.0059L15.5002 3.53073C15.7783 3.24299 15.9313 2.85828 15.9313 2.44807C15.9313 2.03763 15.7783 1.65314 15.5002 1.36494L14.6151 0.447545C14.3374 0.158894 13.9662 0 13.5707 0C13.1751 0 12.8043 0.158894 12.5264 0.447545L0.500025 12.9192C0.221025 13.2083 0.0682443 13.5946 0.0693418 14.0052C0.0682443 14.4177 0.220805 14.8036 0.500025 15.0929L12.5152 27.5525C12.7931 27.8411 13.1639 28 13.5597 28C13.9552 28 14.326 27.8411 14.6041 27.5525L15.489 26.6351C16.0648 26.038 16.0648 25.0659 15.489 24.469L5.39954 14.0059Z" fill="#545454"/>
</svg>
