<svg width="16" height="28" viewBox="0 0 16 28" fill="none" xmlns="http://www.w3.org/2000/svg">
<path d="M10.6005 13.9941L0.499828 24.4693C0.221706 24.757 0.0687075 25.1417 0.0687075 25.5519C0.0687075 25.9624 0.221706 26.3469 0.499828 26.6351L1.3849 27.5525C1.66258 27.8411 2.03378 28 2.42934 28C2.8249 28 3.19566 27.8411 3.47356 27.5525L15.5 15.0808C15.779 14.7917 15.9318 14.4054 15.9307 13.9948C15.9318 13.5823 15.7792 13.1964 15.5 12.9071L3.48476 0.447544C3.20685 0.158894 2.8361 0 2.44032 0C2.04476 0 1.674 0.158894 1.39588 0.447544L0.511024 1.36494C-0.0647564 1.96205 -0.0647564 2.93408 0.511024 3.53096L10.6005 13.9941Z" fill="#545454"/>
</svg>
