<svg width="38" height="94" viewBox="0 0 38 94" fill="none" xmlns="http://www.w3.org/2000/svg">
<path d="M19.285 40.275H14.385C14.385 38.665 13.58 37.86 11.97 37.86C9.52 37.86 7.65333 40.17 6.37 44.79L6.44 44.86C7.7 43.4833 9.40333 42.795 11.55 42.795C13.44 42.795 14.945 43.32 16.065 44.37C17.2083 45.3967 17.78 46.8433 17.78 48.71C17.78 51.6033 16.7883 54.135 14.805 56.305C12.775 58.545 10.325 59.665 7.455 59.665C2.765 59.665 0.42 57.215 0.42 52.315C0.42 50.7983 0.63 49.0483 1.05 47.065C1.51667 44.825 2.065 42.9817 2.695 41.535C4.88833 36.4483 8.37667 33.905 13.16 33.905C14.8633 33.905 16.2983 34.325 17.465 35.165C18.7717 36.1217 19.425 37.4283 19.425 39.085C19.425 39.6217 19.3783 40.0183 19.285 40.275ZM9.835 46.75C8.365 46.75 7.175 47.3333 6.265 48.5C5.425 49.5733 5.005 50.88 5.005 52.42C5.005 53.4 5.27333 54.1933 5.81 54.8C6.34667 55.4067 7.105 55.71 8.085 55.71C9.415 55.71 10.5467 55.045 11.48 53.715C12.2967 52.525 12.705 51.23 12.705 49.83C12.705 47.7767 11.7483 46.75 9.835 46.75Z" fill="#EDB512"/>
<line x1="37.4927" y1="21.0853" x2="28.4927" y2="73.0853" stroke="#DBDBDB"/>
</svg>
