<svg width="40" height="94" viewBox="0 0 40 94" fill="none" xmlns="http://www.w3.org/2000/svg">
<path d="M8.825 42.76H4.03C4.61333 40.03 5.73333 37.895 7.39 36.355C9.14 34.7217 11.3683 33.905 14.075 33.905C16.1283 33.905 17.7967 34.3833 19.08 35.34C20.5033 36.4133 21.215 37.9417 21.215 39.925C21.215 42.165 20.515 44.1717 19.115 45.945C17.995 47.3217 16.315 48.6633 14.075 49.97C10.295 52.1633 8.06667 53.715 7.39 54.625H18.275L17.365 59H0.285C0.681667 57.11 1.28833 55.57 2.105 54.38C3.31833 52.6067 5.34833 50.8217 8.195 49.025C13.5383 45.6417 16.21 42.8883 16.21 40.765C16.21 38.9683 15.2767 38.07 13.41 38.07C11.0067 38.07 9.47833 39.6333 8.825 42.76Z" fill="#EDB512"/>
<line x1="39.4927" y1="21.0853" x2="30.4927" y2="73.0853" stroke="#DBDBDB"/>
</svg>
