<svg width="39" height="94" viewBox="0 0 39 94" fill="none" xmlns="http://www.w3.org/2000/svg">
<path d="M9.855 38.525L7.825 43.95C8.525 43.53 9.14333 43.2267 9.68 43.04C10.5433 42.7367 11.5117 42.585 12.585 42.585C14.4283 42.585 15.91 43.1217 17.03 44.195C18.15 45.245 18.71 46.6917 18.71 48.535C18.71 50.2383 18.3017 51.9183 17.485 53.575C16.6683 55.2083 15.5833 56.5383 14.23 57.565C12.3633 58.965 10.1 59.665 7.44 59.665C5.50333 59.665 3.92833 59.175 2.715 58.195C1.385 57.145 0.72 55.6633 0.72 53.75L0.86 52.28H5.83L5.76 53.015C5.76 54.8117 6.68167 55.71 8.525 55.71C9.97167 55.71 11.185 55.0567 12.165 53.75C13.0283 52.5367 13.46 51.1833 13.46 49.69C13.46 47.59 12.5033 46.54 10.59 46.54C9.93667 46.54 9.4 46.61 8.98 46.75C8.16333 47.03 7.46333 47.555 6.88 48.325L2.505 48.115L7.16 34.36H20.95L20.075 38.525H9.855Z" fill="#EDB512"/>
<line x1="38.4927" y1="21.0853" x2="29.4927" y2="73.0853" stroke="#DBDBDB"/>
</svg>
