<svg width="39" height="94" viewBox="0 0 39 94" fill="none" xmlns="http://www.w3.org/2000/svg">
<path d="M8.28 48.01L9.015 44.475H9.82C13.1567 44.475 14.825 43.0867 14.825 40.31C14.825 38.6767 13.9733 37.86 12.27 37.86C9.96 37.86 8.53667 39.2367 8 41.99H3.415C3.975 39.4 5.11833 37.405 6.845 36.005C8.595 34.605 10.7883 33.905 13.425 33.905C15.245 33.905 16.7383 34.325 17.905 35.165C19.235 36.0983 19.9 37.4517 19.9 39.225C19.9 42.305 18.5 44.4633 15.7 45.7C17.4967 46.4 18.395 47.8 18.395 49.9C18.395 52.6767 17.3567 54.9983 15.28 56.865C13.2033 58.7317 10.765 59.665 7.965 59.665C3.15833 59.665 0.755 57.6933 0.755 53.75C0.755 52.9333 0.848333 52.1167 1.035 51.3H5.865C5.725 51.72 5.655 52.21 5.655 52.77C5.655 54.73 6.62333 55.71 8.56 55.71C9.89 55.71 10.9983 55.2083 11.885 54.205C12.795 53.2017 13.25 52.0233 13.25 50.67C13.25 49.5267 12.655 48.7567 11.465 48.36C10.765 48.1267 9.70333 48.01 8.28 48.01Z" fill="#EDB512"/>
<line x1="38.4927" y1="21.0853" x2="29.4927" y2="73.0853" stroke="#DBDBDB"/>
</svg>
