<svg width="21" height="8" viewBox="0 0 21 8" fill="none" xmlns="http://www.w3.org/2000/svg">
<path d="M2.43188 5.38V8H0.921875V0.74H4.24188C4.94854 0.74 5.49854 0.95 5.89188 1.37C6.28521 1.78333 6.48188 2.34667 6.48188 3.06C6.48188 3.57333 6.34188 4.04 6.06188 4.46C5.64854 5.07333 5.01854 5.38 4.17188 5.38H2.43188ZM2.43188 1.99V4.13H3.84188C4.59521 4.13 4.97188 3.75333 4.97188 3C4.97188 2.32667 4.52854 1.99 3.64188 1.99H2.43188ZM7.83086 8V0.74H11.0309C12.1242 0.74 12.9242 1.14333 13.4309 1.95C13.8042 2.54333 13.9909 3.29333 13.9909 4.2C13.9909 5.17333 13.7875 6 13.3809 6.68C12.8542 7.56 12.0509 8 10.9709 8H7.83086ZM9.31086 1.99V6.75H10.7909C11.3775 6.75 11.8142 6.47333 12.1009 5.92C12.3275 5.49333 12.4409 4.95667 12.4409 4.31C12.4409 2.76333 11.8842 1.99 10.7709 1.99H9.31086ZM15.3453 0.74H20.5153V1.99H16.8553V3.49H20.0553V4.74H16.8553V8H15.3453V0.74Z" fill="black"/>
</svg>
