<svg width="39" height="39" viewBox="0 0 39 39" fill="none" xmlns="http://www.w3.org/2000/svg">
<path d="M9.73028 15.9199H7.31251C7.00889 15.9199 6.71768 16.0408 6.50326 16.2558C6.28883 16.4709 6.16894 16.7625 6.16993 17.0662L6.18676 25.7456C6.18676 26.3766 6.69833 26.8881 7.32934 26.8881C7.96035 26.8881 8.47192 26.3766 8.47192 25.7456V23.1102C8.93908 23.1079 9.43816 23.1058 9.73028 23.1058C11.7379 23.1058 13.3712 21.494 13.3712 19.5129C13.3712 17.5317 11.7379 15.9199 9.73028 15.9199ZM9.73028 20.8207C9.43557 20.8207 8.93466 20.8227 8.46567 20.8252C8.46323 20.3387 8.4611 19.8149 8.4611 19.5129C8.4611 19.2544 8.45981 18.7135 8.45844 18.2051H9.7302C10.4651 18.2051 11.086 18.8039 11.086 19.5129C11.086 20.2218 10.4652 20.8207 9.73028 20.8207Z" fill="#EDB512"/>
<path d="M19.449 15.9199H17.0625C16.7591 15.9199 16.4681 16.0406 16.2538 16.2553C16.0394 16.47 15.9193 16.7612 15.9199 17.0646C15.9199 17.0647 15.9369 25.4623 15.937 25.4927C15.9381 25.7958 16.0595 26.086 16.2747 26.2996C16.4888 26.5121 16.7781 26.6312 17.0796 26.6312H17.0839C17.156 26.6309 18.8583 26.6244 19.5388 26.6125C22.1205 26.5675 23.9944 24.3229 23.9944 21.2756C23.9943 18.0722 22.1677 15.9199 19.449 15.9199ZM19.4989 24.3278C19.2029 24.333 18.6938 24.3371 18.2183 24.3402C18.2151 23.3477 18.2089 19.2364 18.2071 18.2051H19.449C21.5462 18.2051 21.7091 20.5553 21.7091 21.2756C21.7091 22.7756 21.0257 24.3011 19.4989 24.3278Z" fill="#EDB512"/>
<path d="M31.5247 18.1168C32.1557 18.1168 32.6673 17.6053 32.6673 16.9742C32.6673 16.3432 32.1557 15.8317 31.5247 15.8317H28.0312C27.4002 15.8317 26.8887 16.3432 26.8887 16.9742V25.5937C26.8887 26.2247 27.4002 26.7363 28.0312 26.7363C28.6623 26.7363 29.1738 26.2247 29.1738 25.5937V22.345H31.2472C31.8782 22.345 32.3898 21.8334 32.3898 21.2024C32.3898 20.5714 31.8782 20.0598 31.2472 20.0598H29.1738V18.1168H31.5247Z" fill="#EDB512"/>
<path d="M34.8867 11.0449H34.0488V10.719C34.0488 9.25024 33.4923 7.85439 32.4818 6.78844L27.7359 1.78235C26.6621 0.64967 25.151 0 23.59 0H8.37891C6.48885 0 4.95117 1.53768 4.95117 3.42773V11.0449H4.11328C2.22323 11.0449 0.685547 12.5826 0.685547 14.4727V28.1836C0.685547 30.0736 2.22323 31.6113 4.11328 31.6113H4.95117V35.5723C4.95117 37.4623 6.48885 39 8.37891 39H30.6211C32.5111 39 34.0488 37.4623 34.0488 35.5723V31.6113H34.8867C36.7768 31.6113 38.3145 30.0736 38.3145 28.1836V14.4727C38.3145 12.5826 36.7768 11.0449 34.8867 11.0449ZM7.23633 3.42773C7.23633 2.79772 7.74889 2.28516 8.37891 2.28516H23.59C24.5266 2.28516 25.4333 2.67493 26.0776 3.35461L30.8235 8.3607C31.4298 9.00024 31.7637 9.83775 31.7637 10.719V11.0449H7.23633V3.42773ZM31.7637 35.5723C31.7637 36.2023 31.2511 36.7148 30.6211 36.7148H8.37891C7.74889 36.7148 7.23633 36.2023 7.23633 35.5723V31.6113H31.7637V35.5723ZM36.0293 28.1836C36.0293 28.8136 35.5167 29.3262 34.8867 29.3262H4.11328C3.48326 29.3262 2.9707 28.8136 2.9707 28.1836V14.4727C2.9707 13.8426 3.48326 13.3301 4.11328 13.3301H34.8867C35.5167 13.3301 36.0293 13.8426 36.0293 14.4727V28.1836Z" fill="#EDB512"/>
</svg>
