<svg width="18" height="18" viewBox="0 0 18 18" fill="none" xmlns="http://www.w3.org/2000/svg">
<path d="M16.9746 12.6244C16.9437 12.5987 13.4382 10.1047 12.4917 10.2573C12.0351 10.338 11.7744 10.6496 11.2511 11.2728C11.167 11.3733 10.9641 11.6136 10.8074 11.7849C10.4767 11.6772 10.1541 11.5459 9.8422 11.392C8.23185 10.6081 6.93075 9.30696 6.14677 7.69661C5.99293 7.38467 5.86164 7.0621 5.7539 6.7314C5.92578 6.57413 6.16665 6.37127 6.26954 6.28474C6.88983 5.76442 7.20085 5.50309 7.28153 5.04592C7.44698 4.0994 4.9401 0.59515 4.91437 0.56358C4.80021 0.401672 4.65152 0.26713 4.47904 0.169669C4.30657 0.0722068 4.1146 0.0142562 3.917 0C2.90092 0 0 3.76266 0 4.39698C0 4.43381 0.0532011 8.17776 4.67 12.8741C9.36105 17.4856 13.105 17.5388 13.1418 17.5388C13.7756 17.5388 17.5388 14.6379 17.5388 13.6218C17.5244 13.4242 17.4663 13.2322 17.3688 13.0597C17.2712 12.8873 17.1366 12.7386 16.9746 12.6244ZM13.0769 16.366C12.5695 16.3228 9.42419 15.9083 5.49549 12.0492C1.61766 8.10118 1.21369 4.95062 1.17335 4.46246C1.93966 3.25967 2.86514 2.16606 3.9246 1.21135C3.94799 1.23473 3.97897 1.26981 4.01873 1.31541C4.83126 2.42458 5.5312 3.61198 6.10818 4.86C5.92055 5.04876 5.72223 5.22659 5.5142 5.3926C5.1916 5.63841 4.89536 5.91701 4.63025 6.22394C4.58539 6.28688 4.55345 6.35809 4.53629 6.43346C4.51913 6.50882 4.51709 6.58684 4.53027 6.66299C4.654 7.19894 4.84349 7.71754 5.09444 8.20699C5.99353 10.0533 7.48543 11.545 9.33182 12.4438C9.82118 12.6951 10.3398 12.8848 10.8758 13.0085C10.952 13.022 11.03 13.0201 11.1055 13.003C11.1809 12.9858 11.2521 12.9537 11.3149 12.9086C11.6229 12.6424 11.9025 12.345 12.1491 12.0211C12.3327 11.8025 12.5777 11.5107 12.6706 11.4283C13.9218 12.0047 15.1119 12.7055 16.2228 13.5201C16.2713 13.561 16.3058 13.5926 16.3286 13.613C15.3739 14.6728 14.28 15.5985 13.0769 16.3649V16.366Z" fill="#24292E"/>
<path d="M12.8618 8.18345H14.031C14.0296 6.94345 13.5364 5.75464 12.6596 4.87784C11.7828 4.00103 10.594 3.50782 9.354 3.50643V4.67569C10.284 4.67661 11.1757 5.04648 11.8333 5.70411C12.491 6.36174 12.8608 7.25342 12.8618 8.18345Z" fill="#24292E"/>
<path d="M15.7849 8.18369H16.9542C16.9518 6.16872 16.1504 4.23694 14.7256 2.81214C13.3008 1.38734 11.369 0.585863 9.354 0.583542V1.7528C11.059 1.75481 12.6935 2.43299 13.8991 3.63858C15.1047 4.84418 15.7829 6.47873 15.7849 8.18369Z" fill="#24292E"/>
</svg>
