<svg width="12" height="12" viewBox="0 0 12 12" fill="none" xmlns="http://www.w3.org/2000/svg">
<path d="M11.614 8.6376C11.5928 8.62 9.1944 6.9136 8.5468 7.018C8.2344 7.0732 8.056 7.2864 7.698 7.7128C7.6404 7.7816 7.5016 7.946 7.3944 8.0632C7.16813 7.98948 6.94743 7.89965 6.734 7.7944C5.63221 7.258 4.742 6.36779 4.2056 5.266C4.10035 5.05257 4.01052 4.83187 3.9368 4.6056C4.0544 4.498 4.2192 4.3592 4.2896 4.3C4.714 3.944 4.9268 3.7652 4.982 3.4524C5.0952 2.8048 3.38 0.4072 3.3624 0.3856C3.28429 0.274823 3.18256 0.18277 3.06455 0.116087C2.94654 0.0494037 2.8152 0.00975404 2.68 0C1.9848 0 0 2.5744 0 3.0084C0 3.0336 0.0364 5.5952 3.1952 8.8084C6.4048 11.9636 8.9664 12 8.9916 12C9.4252 12 12 10.0152 12 9.32C11.9901 9.18478 11.9504 9.05344 11.8837 8.93544C11.8169 8.81743 11.7248 8.71571 11.614 8.6376ZM8.9472 11.1976C8.6 11.168 6.448 10.8844 3.76 8.244C1.1068 5.5428 0.8304 3.3872 0.8028 3.0532C1.32711 2.23026 1.96032 1.48201 2.6852 0.8288C2.7012 0.8448 2.7224 0.8688 2.7496 0.9C3.30553 1.65889 3.78443 2.47131 4.1792 3.3252C4.05082 3.45435 3.91513 3.57602 3.7728 3.6896C3.55208 3.85778 3.34939 4.0484 3.168 4.2584C3.13731 4.30146 3.11546 4.35019 3.10372 4.40175C3.09198 4.45331 3.09058 4.50669 3.0996 4.5588C3.18425 4.92549 3.3139 5.28031 3.4856 5.6152C4.10075 6.87841 5.12151 7.89902 6.3848 8.514C6.71962 8.68595 7.07446 8.81573 7.4412 8.9004C7.4933 8.90963 7.54672 8.90833 7.59832 8.89658C7.64991 8.88483 7.69863 8.86287 7.7416 8.832C7.95234 8.64987 8.14363 8.44638 8.3124 8.2248C8.438 8.0752 8.6056 7.8756 8.6692 7.8192C9.52526 8.21359 10.3395 8.69307 11.0996 9.2504C11.1328 9.2784 11.1564 9.3 11.172 9.314C10.5188 10.0391 9.77036 10.6725 8.9472 11.1968V11.1976Z" fill="#24292E"/>
<path d="M8.80039 5.59917H9.60039C9.59944 4.75077 9.26199 3.93739 8.66208 3.33748C8.06217 2.73757 7.24879 2.40012 6.40039 2.39917V3.19917C7.03672 3.19981 7.6468 3.45287 8.09675 3.90282C8.54669 4.35276 8.79976 4.96285 8.80039 5.59917Z" fill="#24292E"/>
<path d="M10.8004 5.59917H11.6004C11.5988 4.22053 11.0504 2.89881 10.0756 1.92397C9.10075 0.949123 7.77903 0.400758 6.40039 0.39917V1.19917C7.56692 1.20055 8.68528 1.66456 9.51014 2.48942C10.335 3.31428 10.799 4.43264 10.8004 5.59917Z" fill="#24292E"/>
</svg>
