<svg width="21" height="21" viewBox="0 0 21 21" fill="none" xmlns="http://www.w3.org/2000/svg">
<g clip-path="url(#clip0_269_8520)">
<path d="M19.3001 5.40712C19.2893 4.84015 19.279 4.30454 19.279 3.78637C19.279 3.38043 18.95 3.05132 18.544 3.05132C15.4004 3.05132 13.0069 2.14789 11.0119 0.208131C10.7265 -0.0694258 10.2723 -0.0693278 9.98705 0.208131C7.99221 2.14789 5.59917 3.05132 2.45578 3.05132C2.04984 3.05132 1.72073 3.38043 1.72073 3.78637C1.72073 4.30464 1.71054 4.84044 1.69966 5.40751C1.59891 10.6838 1.46091 17.91 10.2587 20.9595C10.3367 20.9865 10.4181 21.0001 10.4994 21.0001C10.5808 21.0001 10.6622 20.9865 10.7401 20.9595C19.5386 17.9099 19.4008 10.6835 19.3001 5.40712ZM10.4995 19.485C2.95425 16.744 3.06833 10.7396 3.16957 5.43554C3.17565 5.11721 3.18153 4.80869 3.18564 4.50624C6.12978 4.38196 8.48411 3.4898 10.4995 1.7341C12.5151 3.4898 14.8699 4.38206 17.8142 4.50624C17.8183 4.80859 17.8242 5.11692 17.8303 5.43505C17.9314 10.7393 18.0454 16.7439 10.4995 19.485Z" fill="white"/>
<path d="M13.0308 7.94657L9.48303 11.4941L7.96912 9.98022C7.68205 9.69326 7.21662 9.69326 6.92965 9.98022C6.64259 10.2674 6.64259 10.7327 6.92965 11.0198L8.9633 13.0534C9.10678 13.1969 9.29496 13.2687 9.48303 13.2687C9.67111 13.2687 9.85928 13.1969 10.0028 13.0534L14.0702 8.98613C14.3573 8.69907 14.3573 8.23363 14.0703 7.94667C13.7833 7.65961 13.3179 7.65951 13.0308 7.94657Z" fill="white"/>
</g>
<defs>
<clipPath id="clip0_269_8520">
<rect width="21" height="21" fill="white"/>
</clipPath>
</defs>
</svg>
