<svg width="22" height="24" viewBox="0 0 22 24" fill="none" xmlns="http://www.w3.org/2000/svg">
<path d="M17.804 4.13123C17.7183 4.05739 17.6179 4.00247 17.5096 3.97009C17.4012 3.9377 17.2872 3.92857 17.175 3.9433C17.0629 3.95803 16.9551 3.99628 16.8588 4.05555C16.7624 4.11482 16.6797 4.19377 16.616 4.28723C16.5048 4.4464 16.4564 4.64104 16.48 4.83375C16.5036 5.02645 16.5976 5.20362 16.744 5.33123C18.1054 6.50345 19.0755 8.0643 19.5239 9.80406C19.9722 11.5438 19.8773 13.3791 19.2519 15.0633C18.6265 16.7476 17.5005 18.2 16.0254 19.2255C14.5502 20.2511 12.7965 20.8005 11 20.8H10.6V20.396C10.6021 20.3249 10.5843 20.2546 10.5485 20.1931C10.5128 20.1315 10.4605 20.0813 10.3976 20.0479C10.3347 20.0146 10.2638 19.9996 10.1928 20.0046C10.1218 20.0095 10.0536 20.0343 9.99595 20.076L8.35995 21.28C8.31027 21.3173 8.26995 21.3656 8.24218 21.4211C8.21441 21.4767 8.19995 21.5379 8.19995 21.6C8.19995 21.6621 8.21441 21.7234 8.24218 21.7789C8.26995 21.8345 8.31027 21.8828 8.35995 21.92L9.99595 23.1244C10.0536 23.1662 10.1218 23.1909 10.1928 23.1959C10.2638 23.2009 10.3347 23.1858 10.3976 23.1525C10.4605 23.1192 10.5128 23.0689 10.5485 23.0074C10.5843 22.9459 10.6021 22.8756 10.6 22.8044V22.4H11C13.1209 22.3991 15.1908 21.7499 16.9324 20.5395C18.674 19.3291 20.004 17.6153 20.7442 15.6277C21.4845 13.6402 21.5995 11.4739 21.074 9.41915C20.5485 7.36438 19.4075 5.51933 17.804 4.13123Z" fill="black"/>
<path d="M12.004 0.874828C11.9464 0.833082 11.8782 0.808322 11.8072 0.803357C11.7362 0.798392 11.6653 0.81342 11.6024 0.846737C11.5395 0.880054 11.4872 0.930326 11.4514 0.991852C11.4157 1.05338 11.3979 1.12369 11.4 1.19483V1.60003H11C8.87913 1.60099 6.80919 2.25018 5.0676 3.46059C3.32602 4.67099 1.99599 6.38479 1.25576 8.37232C0.515527 10.3599 0.400457 12.5261 0.925969 14.5809C1.45148 16.6357 2.59247 18.4807 4.19603 19.8688C4.28171 19.9427 4.38203 19.9976 4.49041 20.03C4.5988 20.0624 4.71279 20.0715 4.82495 20.0568C4.9371 20.042 5.04488 20.0038 5.14123 19.9445C5.23757 19.8852 5.32031 19.8063 5.38403 19.7128C5.49519 19.5537 5.54361 19.359 5.51998 19.1663C5.49635 18.9736 5.40235 18.7964 5.25603 18.6688C3.89454 17.4966 2.92445 15.9358 2.47612 14.196C2.0278 12.4562 2.12271 10.6209 2.74811 8.93671C3.37352 7.25249 4.49944 5.80003 5.97459 4.77451C7.44974 3.749 9.20343 3.19956 11 3.20003H11.4V3.60403C11.3979 3.67516 11.4157 3.74548 11.4514 3.807C11.4872 3.86853 11.5395 3.9188 11.6024 3.95212C11.6653 3.98544 11.7362 4.00046 11.8072 3.9955C11.8782 3.99053 11.9464 3.96577 12.004 3.92403L13.64 2.72003C13.6897 2.68277 13.73 2.63446 13.7578 2.57891C13.7856 2.52337 13.8 2.46213 13.8 2.40003C13.8 2.33793 13.7856 2.27668 13.7578 2.22114C13.73 2.1656 13.6897 2.11729 13.64 2.08003L12.004 0.874828Z" fill="black"/>
<path d="M15.7925 14.9192L15.7997 9.53522L11.4001 11.9984V17.37L15.7925 14.9192Z" fill="black"/>
<path d="M6.61719 8.85204L11 11.3056L15.3832 8.85164L11.0084 6.40204L6.61719 8.85204ZM11.3488 7.57724C11.4006 7.6698 11.4135 7.77915 11.3847 7.88125C11.3559 7.98334 11.2877 8.06981 11.1952 8.12164L9.19519 9.24164C9.10286 9.29035 8.99515 9.30104 8.89505 9.27142C8.79495 9.2418 8.71039 9.17422 8.65943 9.08312C8.60847 8.99201 8.59515 8.88459 8.62231 8.78379C8.64947 8.683 8.71495 8.59681 8.80479 8.54364L10.8048 7.42364C10.8973 7.37195 11.0066 7.35909 11.1086 7.38789C11.2106 7.41669 11.297 7.48479 11.3488 7.57724Z" fill="black"/>
<path d="M10.6 12L6.20675 9.53882L6.19995 14.906L10.6 17.378V12ZM7.79995 14.2128C7.79995 14.3189 7.75781 14.4206 7.68279 14.4957C7.60778 14.5707 7.50604 14.6128 7.39995 14.6128C7.29386 14.6128 7.19212 14.5707 7.11711 14.4957C7.04209 14.4206 6.99995 14.3189 6.99995 14.2128V11.6C6.99995 11.4939 7.04209 11.3922 7.11711 11.3172C7.19212 11.2422 7.29386 11.2 7.39995 11.2C7.50604 11.2 7.60778 11.2422 7.68279 11.3172C7.75781 11.3922 7.79995 11.4939 7.79995 11.6V14.2128Z" fill="black"/>
</svg>
