<svg width="99" height="99" viewBox="0 0 99 99" fill="none" xmlns="http://www.w3.org/2000/svg">
<circle cx="49.5" cy="49.5" r="49.5" fill="#BFBFBF" fill-opacity="0.1"/>
<circle cx="49.5002" cy="49.4999" r="37.7629" fill="#BFBFBF" fill-opacity="0.2"/>
<g filter="url(#filter0_d_434_19426)">
<circle cx="49.5007" cy="50.0876" r="29.0876" fill="#24292E"/>
</g>
<g clip-path="url(#clip0_434_19426)">
<path d="M59.9672 59.9677C59.6644 59.9677 59.4189 59.7222 59.4189 59.4193C59.4189 59.1164 59.6644 58.8709 59.9672 58.8709C60.2701 58.8709 60.5156 59.1164 60.5156 59.4193C60.5156 59.7222 60.2701 59.9677 59.9672 59.9677Z" fill="white"/>
<path d="M47.9038 59.9679C47.6009 59.9679 47.3554 59.7223 47.3554 59.4195C47.3554 59.1166 47.6009 58.8711 47.9038 58.8711C48.2066 58.8711 48.4521 59.1166 48.4521 59.4195C48.4521 59.7223 48.2066 59.9679 47.9038 59.9679Z" fill="white"/>
<path d="M42.9672 59.9677C42.6644 59.9677 42.4189 59.7222 42.4189 59.4193C42.4189 59.1164 42.6644 58.8709 42.9672 58.8709C43.2701 58.8709 43.5156 59.1164 43.5156 59.4193C43.5156 59.7222 43.2701 59.9677 42.9672 59.9677Z" fill="white"/>
<path d="M38.0327 59.9677C37.7298 59.9677 37.4843 59.7222 37.4843 59.4193C37.4843 59.1164 37.7298 58.8709 38.0327 58.8709C38.3355 58.8709 38.5811 59.1164 38.5811 59.4193C38.5811 59.7222 38.3355 59.9677 38.0327 59.9677Z" fill="white"/>
<path d="M32.913 46.5246L51.7408 36.0652C52.0068 35.9171 52.309 35.8387 52.6144 35.8387C53.2999 35.8387 53.9168 36.2198 54.2234 36.8329L54.2941 36.9744C54.4181 37.2228 54.4839 37.5014 54.4839 37.7789V37.8501C54.4839 38.4978 54.1335 39.0983 53.5692 39.4169L51.204 40.7511L53.6536 44.5619C53.8379 44.8487 53.9355 45.1804 53.9355 45.5216C53.9355 46.1791 53.5752 46.779 52.9956 47.0883L50.6451 48.3419V52.2903C51.25 52.2903 51.7419 52.7822 51.7419 53.3871V54.4838H52.8387V49C52.8387 47.7903 53.8225 46.8065 55.0322 46.8065H59.716C60.7579 46.8065 61.6622 47.5479 61.8667 48.5695L62.6465 52.468L65.0907 53.6903C65.6518 53.9706 66 54.5348 66 55.1617V58.3226C66 59.2296 65.2619 59.9677 64.3548 59.9677H62.6543C62.3993 61.2175 61.2921 62.1613 59.9677 62.1613C58.6434 62.1613 57.5362 61.2175 57.2812 59.9677H50.5897C50.3347 61.2175 49.2275 62.1613 47.9032 62.1613C46.813 62.1613 45.8769 61.5169 45.4354 60.5929C44.994 61.5169 44.0579 62.1613 42.9677 62.1613C41.8775 62.1613 40.9414 61.5169 40.5 60.5929C40.0586 61.5169 39.1225 62.1613 38.0323 62.1613C36.7085 62.1613 35.6007 61.2175 35.3457 59.9677H34.1936C33.5887 59.9677 33.0968 59.4758 33.0968 58.871V55.5807C33.0968 54.9758 33.5887 54.4839 34.1936 54.4839H34.9515L32.1876 48.9556C32.0648 48.7105 32.0001 48.4358 32.0001 48.1621V48.0771C32 47.4327 32.3499 46.8377 32.913 46.5246V46.5246ZM53.0301 38.4616C53.25 38.3377 53.3871 38.103 53.3871 37.8501V37.7789C53.3871 37.6703 53.3613 37.5617 53.313 37.4647L53.2423 37.3232C53.1227 37.0841 52.882 36.9355 52.6144 36.9355C52.4954 36.9355 52.3774 36.9661 52.2732 37.0237L49.7194 38.4424L50.6094 39.8271L53.0301 38.4616ZM52.8387 45.5216C52.8387 45.391 52.8014 45.2644 52.7306 45.1547L50.247 41.2913L46.6847 43.3006L49.4233 47.7508L52.4795 46.121C52.701 46.0025 52.8387 45.7733 52.8387 45.5216V45.5216ZM44.2932 50.4867L41.6269 46.1539L38.3239 48.0168L40.943 52.2728L44.2932 50.4867ZM45.2627 49.9695L48.4538 48.2679L45.7289 43.8397L42.5828 45.6148L45.2627 49.9695ZM49.5484 48.9271L39.129 54.4839H48.4516V53.3871C48.4516 52.7822 48.9435 52.2904 49.5484 52.2904V48.9271ZM50.6451 53.3871H49.5484V54.4839H50.6451V53.3871ZM57.7884 57.7742H50.0831C50.3254 58.0945 50.507 58.4635 50.5898 58.871H57.2812C57.3645 58.4635 57.5455 58.0945 57.7884 57.7742V57.7742ZM56.129 52.2903H59.3206L58.9548 50.0968H56.129V52.2903H56.129ZM59.4193 53.3871H56.129V53.9355H57.2258V55.0323H56.129V56.6774H59.4193V53.3871ZM62.1563 53.4491C61.8515 53.2972 61.6381 53.0181 61.5712 52.6835L60.7914 48.7851C60.6888 48.274 60.237 47.9032 59.716 47.9032H55.0322C54.4273 47.9032 53.9354 48.3952 53.9354 49V56.6774H55.0322V50.0968C55.0322 49.4919 55.5241 49 56.129 49H58.9548C59.4934 49 59.9485 49.3855 60.0368 49.9169L60.509 52.7488L60.515 56.6774H62.7097V55.5807C62.7097 54.9758 63.2016 54.4839 63.8065 54.4839H64.2255L62.1563 53.4491ZM63.8065 55.5807V56.6774H64.9032V55.5807H63.8065ZM64.9032 58.3226V57.7742H62.1471C62.3895 58.0945 62.571 58.4635 62.6538 58.871H64.3548C64.657 58.871 64.9032 58.6253 64.9032 58.3226V58.3226ZM59.9677 61.0646C60.8748 61.0646 61.6129 60.3264 61.6129 59.4194C61.6129 58.5124 60.8748 57.7743 59.9677 57.7743C59.0607 57.7743 58.3226 58.5124 58.3226 59.4194C58.3226 60.3264 59.0607 61.0646 59.9677 61.0646ZM47.9032 61.0646C48.8103 61.0646 49.5484 60.3264 49.5484 59.4194C49.5484 58.5124 48.8103 57.7743 47.9032 57.7743C46.9962 57.7743 46.2581 58.5124 46.2581 59.4194C46.2581 60.3264 46.9962 61.0646 47.9032 61.0646ZM42.9677 61.0646C43.8748 61.0646 44.6129 60.3264 44.6129 59.4194C44.6129 58.5124 43.8748 57.7743 42.9677 57.7743C42.0607 57.7743 41.3226 58.5124 41.3226 59.4194C41.3226 60.3264 42.0607 61.0646 42.9677 61.0646ZM38.0323 61.0646C38.9393 61.0646 39.6774 60.3264 39.6774 59.4194C39.6774 58.5124 38.9393 57.7743 38.0323 57.7743C37.1252 57.7743 36.3871 58.5124 36.3871 59.4194C36.3871 60.3264 37.1252 61.0646 38.0323 61.0646V61.0646ZM34.1935 58.871H35.3457C35.6007 57.6212 36.7079 56.6774 38.0323 56.6774C39.1225 56.6774 40.0586 57.3218 40.5 58.2458C40.9414 57.3218 41.8775 56.6774 42.9677 56.6774C44.0579 56.6774 44.994 57.3218 45.4354 58.2458C45.8769 57.3218 46.813 56.6774 47.9032 56.6774H52.8387V55.5807H34.1935V58.871ZM35.9901 54.1082C36.1058 54.3397 36.3383 54.4839 36.6284 54.4839C36.7392 54.4839 36.8494 54.456 36.9481 54.4039L39.9735 52.7905L37.3682 48.5564L34.1277 50.3842L35.9901 54.1082ZM33.0968 48.1621C33.0968 48.2668 33.1214 48.3721 33.1686 48.4659L33.637 49.402L49.6531 40.3668L48.7592 38.9761L33.4461 47.4832C33.2306 47.6033 33.0968 47.8309 33.0968 48.0771V48.1621Z" fill="white"/>
</g>
<defs>
<filter id="filter0_d_434_19426" x="20.4131" y="21" width="58.1748" height="59.3002" filterUnits="userSpaceOnUse" color-interpolation-filters="sRGB">
<feFlood flood-opacity="0" result="BackgroundImageFix"/>
<feColorMatrix in="SourceAlpha" type="matrix" values="0 0 0 0 0 0 0 0 0 0 0 0 0 0 0 0 0 0 127 0" result="hardAlpha"/>
<feOffset dy="1.125"/>
<feComposite in2="hardAlpha" operator="out"/>
<feColorMatrix type="matrix" values="0 0 0 0 0.375 0 0 0 0 0.375 0 0 0 0 0.375 0 0 0 1 0"/>
<feBlend mode="normal" in2="BackgroundImageFix" result="effect1_dropShadow_434_19426"/>
<feBlend mode="normal" in="SourceGraphic" in2="effect1_dropShadow_434_19426" result="shape"/>
</filter>
<clipPath id="clip0_434_19426">
<rect width="34" height="34" fill="white" transform="matrix(-1 0 0 1 66 32)"/>
</clipPath>
</defs>
</svg>
