<svg width="99" height="99" viewBox="0 0 99 99" fill="none" xmlns="http://www.w3.org/2000/svg">
<circle cx="49.5" cy="49.5" r="49.5" fill="#EDB512" fill-opacity="0.03"/>
<circle cx="49.5002" cy="49.4999" r="37.7629" fill="#EDB512" fill-opacity="0.07"/>
<g filter="url(#filter0_d_434_19386)">
<circle cx="49.5007" cy="50.0876" r="29.0876" fill="#EDB512"/>
</g>
<path d="M54.3338 57.4666H37.2671C36.0906 57.4666 35.1338 58.4233 35.1338 59.5999C35.1338 60.7764 36.0906 61.7332 37.2671 61.7332H54.3338C55.5104 61.7332 56.4671 60.7764 56.4671 59.5999C56.4671 58.4233 55.5104 57.4666 54.3338 57.4666ZM53.2671 59.5999C53.2671 60.1882 52.7887 60.6666 52.2005 60.6666C51.6122 60.6666 51.1338 60.1882 51.1338 59.5999C51.1338 59.0116 51.6122 58.5332 52.2005 58.5332C52.7887 58.5332 53.2671 59.0116 53.2671 59.5999ZM38.3338 59.5999C38.3338 59.0116 38.8122 58.5332 39.4005 58.5332C39.9887 58.5332 40.4671 59.0116 40.4671 59.5999C40.4671 60.1882 39.9887 60.6666 39.4005 60.6666C38.8122 60.6666 38.3338 60.1882 38.3338 59.5999ZM41.2372 58.5332H43.9643C43.7801 58.8483 43.6671 59.2095 43.6671 59.5999C43.6671 59.9903 43.7801 60.3514 43.9637 60.6666H41.2367C41.4208 60.3514 41.5338 59.9903 41.5338 59.5999C41.5338 59.2095 41.4208 58.8483 41.2372 58.5332ZM44.7338 59.5999C44.7338 59.0116 45.2122 58.5332 45.8005 58.5332C46.3887 58.5332 46.8671 59.0116 46.8671 59.5999C46.8671 60.1882 46.3887 60.6666 45.8005 60.6666C45.2122 60.6666 44.7338 60.1882 44.7338 59.5999ZM47.6372 58.5332H50.3643C50.1801 58.8483 50.0671 59.2095 50.0671 59.5999C50.0671 59.9903 50.1801 60.3514 50.3637 60.6666H47.6367C47.8208 60.3514 47.9338 59.9903 47.9338 59.5999C47.9338 59.2095 47.8208 58.8483 47.6372 58.5332ZM36.2005 59.5999C36.2005 59.0116 36.6788 58.5332 37.2671 58.5332H37.5637C37.3801 58.8483 37.2671 59.2095 37.2671 59.5999C37.2671 59.9903 37.3801 60.3514 37.5637 60.6666H37.2671C36.6788 60.6666 36.2005 60.1882 36.2005 59.5999ZM54.3338 60.6666H54.0372C54.2208 60.3514 54.3338 59.9903 54.3338 59.5999C54.3338 59.2095 54.2208 58.8483 54.0372 58.5332H54.3338C54.9221 58.5332 55.4005 59.0116 55.4005 59.5999C55.4005 60.1882 54.9221 60.6666 54.3338 60.6666Z" fill="black"/>
<path d="M62.0219 40.9445L55.2143 34.6234C54.7813 34.2219 54.2172 34 53.626 34H53.4677C52.1807 34 51.1333 35.0469 51.1333 36.3344C51.1333 36.6276 51.1995 36.9078 51.3018 37.1724L38.1297 48.9333C37.7221 48.9333 37.3568 49.1594 37.1755 49.5227L36.3828 51.1078C35.6693 51.2688 35.1333 51.9049 35.1333 52.6667V54.8C35.1333 55.1547 35.2534 55.4799 35.4495 55.7456C34.0042 56.4299 33 57.8982 33 59.6C33 61.9526 34.9141 63.8667 37.2667 63.8667H54.3333C56.6859 63.8667 58.6 61.9526 58.6 59.6C58.6 58.1872 57.9068 56.9359 56.8453 56.1589L54.2646 48.6047C53.8966 47.5253 52.8815 46.8 51.7414 46.8H48.4961L54.4615 40.119L59.1333 43.8565V44.6667C59.1333 45.5487 58.4154 46.2667 57.5333 46.2667H56.6703L57.7456 48.4164C58.3984 49.7221 59.7104 50.5333 61.1701 50.5333C63.2815 50.5333 65 48.8154 65 46.7039V44.1333C65 42.4438 63.6826 41.0591 62.0219 40.9445ZM53.4677 35.0667H53.626C53.9471 35.0667 54.2534 35.1872 54.4885 35.4052L61.0315 41.481L59.6271 42.8854L52.6763 37.3242C52.3734 37.082 52.2 36.7216 52.2 36.3344C52.2 35.6352 52.7685 35.0667 53.4677 35.0667ZM41.5333 51.0667H37.5964L38.1297 50H41.5333V51.0667ZM57.5333 59.6C57.5333 61.3648 56.0982 62.8 54.3333 62.8H37.2667C35.5018 62.8 34.0667 61.3648 34.0667 59.6C34.0667 57.8352 35.5018 56.4 37.2667 56.4H54.3333C56.0982 56.4 57.5333 57.8352 57.5333 59.6ZM46.8667 53.2H52.4586L53.087 55.3333H46.8667V53.2ZM46.8667 52.1333V50H51.5169L52.1451 52.1333H46.8667ZM53.2555 48.9492L55.4922 55.4977C55.1232 55.393 54.7354 55.3333 54.3333 55.3333H54.199L52.5404 49.6992C52.4076 49.2479 51.9867 48.9333 51.5169 48.9333H46.8667C46.2784 48.9333 45.8 49.4117 45.8 50V55.3333H36.7333C36.4391 55.3333 36.2 55.0938 36.2 54.8V52.6667C36.2 52.3729 36.4391 52.1333 36.7333 52.1333H44.0831L44.8464 49.0784C45.025 48.3654 45.6635 47.8667 46.399 47.8667H51.7414C52.4255 47.8667 53.0336 48.3018 53.2555 48.9492ZM47.0656 46.8H46.399C45.1729 46.8 44.1094 47.6305 43.8117 48.8198L43.2503 51.0667H42.6V50C42.6 49.4117 42.1216 48.9333 41.5333 48.9333H39.7318L51.9115 38.0586C51.9461 38.0901 51.9729 38.1273 52.0096 38.1573L53.6271 39.4518L47.0656 46.8ZM61.1701 49.4667C60.1169 49.4667 59.1701 48.8815 58.6992 47.9393L58.3344 47.2102C59.4148 46.8693 60.2 45.8581 60.2 44.6667V43.8208L62.0107 42.0102C62.9083 42.0982 63.6362 42.7482 63.8576 43.5995H61.8V44.6661H63.9333V45.7328H61.8V46.7995H63.9237C63.8714 48.2779 62.6607 49.4667 61.1701 49.4667Z" fill="black"/>
<path d="M54.3333 36.6667C54.3333 36.9612 54.0945 37.2 53.7999 37.2C53.5054 37.2 53.2666 36.9612 53.2666 36.6667C53.2666 36.3722 53.5054 36.1334 53.7999 36.1334C54.0945 36.1334 54.3333 36.3722 54.3333 36.6667Z" fill="black"/>
<defs>
<filter id="filter0_d_434_19386" x="20.4131" y="21" width="58.1748" height="59.3002" filterUnits="userSpaceOnUse" color-interpolation-filters="sRGB">
<feFlood flood-opacity="0" result="BackgroundImageFix"/>
<feColorMatrix in="SourceAlpha" type="matrix" values="0 0 0 0 0 0 0 0 0 0 0 0 0 0 0 0 0 0 127 0" result="hardAlpha"/>
<feOffset dy="1.125"/>
<feComposite in2="hardAlpha" operator="out"/>
<feColorMatrix type="matrix" values="0 0 0 0 0.8625 0 0 0 0 0.662169 0 0 0 0 0.0790625 0 0 0 1 0"/>
<feBlend mode="normal" in2="BackgroundImageFix" result="effect1_dropShadow_434_19386"/>
<feBlend mode="normal" in="SourceGraphic" in2="effect1_dropShadow_434_19386" result="shape"/>
</filter>
</defs>
</svg>
