<svg width="99" height="99" viewBox="0 0 99 99" fill="none" xmlns="http://www.w3.org/2000/svg">
<circle cx="49.5" cy="49.5" r="49.5" fill="#BFBFBF" fill-opacity="0.1"/>
<circle cx="49.5002" cy="49.4999" r="37.7629" fill="#BFBFBF" fill-opacity="0.2"/>
<g filter="url(#filter0_d_434_19398)">
<circle cx="49.5007" cy="50.0876" r="29.0876" fill="#24292E"/>
</g>
<path d="M58.7095 56.3549C59.5097 56.3549 60.1611 57.0062 60.1611 57.8065C60.1611 58.6067 59.5097 59.2581 58.7095 59.2581C57.9093 59.2581 57.2579 58.6067 57.2579 57.8065C57.2579 57.0062 57.9093 56.3549 58.7095 56.3549ZM58.7095 58.2903C58.9765 58.2903 59.1934 58.0735 59.1934 57.8065C59.1934 57.5395 58.9765 57.3226 58.7095 57.3226C58.4425 57.3226 58.2256 57.5395 58.2256 57.8065C58.2256 58.0735 58.4425 58.2903 58.7095 58.2903Z" fill="white"/>
<path d="M41.2906 56.3547C42.0908 56.3547 42.7422 57.0061 42.7422 57.8063C42.7422 58.6066 42.0908 59.258 41.2906 59.258C40.4903 59.258 39.839 58.6066 39.839 57.8063C39.839 57.0061 40.4903 56.3547 41.2906 56.3547ZM41.2906 58.2902C41.5576 58.2902 41.7744 58.0733 41.7744 57.8063C41.7744 57.5394 41.5576 57.3225 41.2906 57.3225C41.0236 57.3225 40.8067 57.5394 40.8067 57.8063C40.8067 58.0733 41.0236 58.2902 41.2906 58.2902Z" fill="white"/>
<path d="M38.5598 40.0648C39.8019 38.1459 41.9077 37 44.1935 37C46.4794 37 48.5852 38.1459 49.8273 40.0648L52.593 44.3393C52.9476 43.4437 53.8183 42.8065 54.8387 42.8065H59.9522C61.1553 42.8065 62.1606 43.6693 62.343 44.8575L63.0099 49.1892L63.9007 49.4117C64.5476 49.5733 65 50.1531 65 50.8203V57.8064C65 58.6067 64.3486 59.2581 63.5484 59.2581H61.7653C61.2205 60.4004 60.0573 61.1935 58.7097 61.1935C57.362 61.1935 56.1994 60.4004 55.6541 59.2581H44.3459C43.8011 60.4004 42.638 61.1935 41.2903 61.1935C39.9427 61.1935 38.78 60.4004 38.2347 59.2581H36.4516C35.6514 59.2581 35 58.6067 35 57.8064V56.8387C35 56.0385 35.6514 55.3871 36.4516 55.3871H37.6041L35 50.1786V45.567L38.5598 40.0648ZM52.4194 46.6774H35.9677V47.6452H52.4194V46.6774ZM63.666 50.3504L62.1509 49.9721L61.387 45.0051C61.2776 44.2914 60.6742 43.7742 59.9522 43.7742H54.8387C54.0385 43.7742 53.3871 44.4256 53.3871 45.2258V55.3871H56.344C56.9552 54.7896 57.7899 54.4194 58.7097 54.4194C59.6295 54.4194 60.4642 54.7896 61.0754 55.3871H64.0323V50.8203C64.0323 50.5978 63.8813 50.4047 63.666 50.3504ZM63.5484 58.2903C63.8154 58.2903 64.0323 58.0734 64.0323 57.8064V56.3548H61.7653C61.9753 56.7957 62.0968 57.2867 62.0968 57.8064C62.0968 57.9709 62.0807 58.1315 62.058 58.2903H63.5484ZM58.7097 60.2258C60.0436 60.2258 61.129 59.1404 61.129 57.8064C61.129 56.4725 60.0436 55.3871 58.7097 55.3871C57.3757 55.3871 56.2903 56.4725 56.2903 57.8064C56.2903 59.1404 57.3757 60.2258 58.7097 60.2258ZM55.3613 58.2903C55.3386 58.1315 55.3226 57.9709 55.3226 57.8064C55.3226 57.2867 55.444 56.7957 55.6541 56.3548H44.3459C44.556 56.7957 44.6774 57.2867 44.6774 57.8064C44.6774 57.9709 44.6614 58.1315 44.6387 58.2903H55.3613ZM41.2903 60.2258C42.6243 60.2258 43.7097 59.1404 43.7097 57.8064C43.7097 56.4725 42.6243 55.3871 41.2903 55.3871C39.9564 55.3871 38.871 56.4725 38.871 57.8064C38.871 59.1404 39.9564 60.2258 41.2903 60.2258ZM35.9677 56.8387V57.8064C35.9677 58.0734 36.1846 58.2903 36.4516 58.2903H37.942C37.9193 58.1315 37.9032 57.9709 37.9032 57.8064C37.9032 57.2867 38.0247 56.7957 38.2347 56.3548H36.4516C36.1846 56.3548 35.9677 56.5717 35.9677 56.8387ZM35.9677 49.9504L38.6862 55.3871H38.9246C39.5358 54.7896 40.3705 54.4194 41.2903 54.4194C42.2101 54.4194 43.0448 54.7896 43.656 55.3871H52.4194V48.6129H35.9677V49.9504ZM52.327 45.7097L49.0143 40.5903C47.9518 38.948 46.1494 37.9677 44.1935 37.9677C42.2377 37.9677 40.4353 38.948 39.3728 40.5903L36.0601 45.7097H52.327Z" fill="white"/>
<path d="M54.3547 45.7097C54.3547 45.176 54.7887 44.7419 55.3225 44.7419H59.7193C60.2231 44.7419 60.6372 45.1204 60.6833 45.6216L61.1289 50.5484V51.5161H54.3547V45.7097ZM55.3225 50.5484H60.1593L59.7193 45.7097H55.3225V50.5484Z" fill="white"/>
<path d="M49.5166 49.5806H48.5489V54.4193H49.5166V49.5806Z" fill="white"/>
<path d="M46.6123 49.5806H45.6446V54.4193H46.6123V49.5806Z" fill="white"/>
<path d="M43.71 49.5806H42.7422V54.4193H43.71V49.5806Z" fill="white"/>
<path d="M40.8066 49.5806H39.8389V54.4193H40.8066V49.5806Z" fill="white"/>
<path d="M44.1934 39.4194H43.2256V40.3872H44.1934V39.4194Z" fill="white"/>
<path d="M49.0322 43.7742H48.0645V44.7419H49.0322V43.7742Z" fill="white"/>
<path d="M47.0977 41.8386H46.1299V42.8064H47.0977V41.8386Z" fill="white"/>
<path d="M43.2266 43.7744H42.2588V44.7422H43.2266V43.7744Z" fill="white"/>
<path d="M41.7734 42.3225H40.8057V43.2903H41.7734V42.3225Z" fill="white"/>
<path d="M43.71 41.3547H42.7422V42.3225H43.71V41.3547Z" fill="white"/>
<path d="M46.1289 39.9032H45.1612V40.8709H46.1289V39.9032Z" fill="white"/>
<path d="M46.1289 43.7742H45.1612V44.7419H46.1289V43.7742Z" fill="white"/>
<path d="M39.3545 43.7744H38.3868V44.7422H39.3545V43.7744Z" fill="white"/>
<path d="M41.7734 39.9031H40.8057V40.8708H41.7734V39.9031Z" fill="white"/>
<path d="M48.5488 40.8708H47.5811V41.8386H48.5488V40.8708Z" fill="white"/>
<defs>
<filter id="filter0_d_434_19398" x="20.4131" y="21" width="58.1748" height="59.3002" filterUnits="userSpaceOnUse" color-interpolation-filters="sRGB">
<feFlood flood-opacity="0" result="BackgroundImageFix"/>
<feColorMatrix in="SourceAlpha" type="matrix" values="0 0 0 0 0 0 0 0 0 0 0 0 0 0 0 0 0 0 127 0" result="hardAlpha"/>
<feOffset dy="1.125"/>
<feComposite in2="hardAlpha" operator="out"/>
<feColorMatrix type="matrix" values="0 0 0 0 0.375 0 0 0 0 0.375 0 0 0 0 0.375 0 0 0 1 0"/>
<feBlend mode="normal" in2="BackgroundImageFix" result="effect1_dropShadow_434_19398"/>
<feBlend mode="normal" in="SourceGraphic" in2="effect1_dropShadow_434_19398" result="shape"/>
</filter>
</defs>
</svg>
