<svg width="28" height="28" viewBox="0 0 28 28" fill="none" xmlns="http://www.w3.org/2000/svg">
<g filter="url(#filter0_i_31_1975)">
<circle cx="13.6719" cy="13.6719" r="13.6719" fill="url(#paint0_linear_31_1975)"/>
</g>
<g clip-path="url(#clip0_31_1975)">
<path d="M17.387 15.1865L16.6003 14.3998C16.3857 14.1852 16.089 14.0776 15.787 14.1048C15.4847 14.1319 15.2122 14.2904 15.0392 14.5397L14.7652 14.9346C14.3925 14.8683 13.6716 14.6804 13.1676 14.1764C12.6635 13.6722 12.4756 12.951 12.4094 12.5789L12.8043 12.3048C13.0537 12.1318 13.2122 11.8592 13.2393 11.5569C13.2664 11.2546 13.1588 10.9582 12.9443 10.7437L12.1576 9.95703C11.8415 9.64093 11.365 9.56549 10.9719 9.76919C10.2826 10.1263 9.82977 10.7957 9.69675 11.6541C9.4801 13.0526 10.1266 14.7026 11.384 15.96C12.4807 17.0566 13.8758 17.6886 15.1424 17.6886C15.3281 17.6886 15.5111 17.675 15.6899 17.6473C16.5483 17.5143 17.2177 17.0615 17.5748 16.3722C17.5748 16.3722 17.5748 16.3722 17.5748 16.3722C17.7785 15.979 17.703 15.5025 17.387 15.1865ZM16.7744 15.9575C16.4906 16.5053 15.953 16.6943 15.5519 16.7564C14.4492 16.9272 13.0634 16.3644 12.0215 15.3225C10.9796 14.2806 10.4167 12.8949 10.5876 11.7921C10.6497 11.391 10.8387 10.8534 11.3865 10.5696C11.4014 10.5619 11.4178 10.5582 11.4344 10.5582C11.465 10.5582 11.4964 10.5708 11.5201 10.5944L12.3068 11.3811C12.3395 11.4139 12.3436 11.451 12.3413 11.4765C12.3391 11.5019 12.3284 11.5377 12.2904 11.5641L11.669 11.9953C11.539 12.0855 11.4658 12.2372 11.4762 12.395C11.4801 12.4546 11.5826 13.8662 12.5302 14.8137C13.4777 15.7613 14.8893 15.8639 14.9489 15.8678C15.1066 15.8779 15.2585 15.8049 15.3487 15.6749L15.7798 15.0536C15.8062 15.0156 15.842 15.0049 15.8675 15.0026C15.8929 15.0003 15.9301 15.0045 15.9628 15.0372L16.7495 15.8238C16.7861 15.8603 16.7963 15.9153 16.7744 15.9575Z" fill="white"/>
<path d="M18.9199 8.42391C17.518 7.02202 15.6542 6.25 13.6716 6.25C11.6891 6.25 9.82525 7.02202 8.42338 8.42388C7.23191 9.61536 6.47552 11.1922 6.29345 12.8641C6.12132 14.4446 6.46482 16.0533 7.26174 17.417L6.4883 20.3034C6.44661 20.459 6.49108 20.625 6.60499 20.7388C6.71884 20.8527 6.88488 20.8972 7.04033 20.8555L9.9268 20.0821C11.0605 20.7446 12.3636 21.0938 13.679 21.0938C13.9458 21.0938 14.2132 21.0794 14.4797 21.0503C16.1515 20.8683 17.7284 20.1119 18.9199 18.9204C20.3218 17.5186 21.0938 15.6547 21.0938 13.6722C21.0938 11.6897 20.3217 9.82578 18.9199 8.42391ZM18.2824 18.2829C16.1275 20.4379 12.8175 20.8209 10.2333 19.2143C10.1611 19.1695 10.0786 19.1463 9.99525 19.1463C9.95623 19.1463 9.91703 19.1514 9.87862 19.1617L7.56111 19.7827L8.18211 17.4652C8.21435 17.3448 8.1953 17.2164 8.12952 17.1106C6.52289 14.5262 6.90587 11.2163 9.06079 9.06133C11.6032 6.51893 15.74 6.51893 18.2824 9.06133C20.8248 11.6037 20.8248 15.7405 18.2824 18.2829Z" fill="white"/>
</g>
<defs>
<filter id="filter0_i_31_1975" x="0" y="0" width="27.3438" height="31.3438" filterUnits="userSpaceOnUse" color-interpolation-filters="sRGB">
<feFlood flood-opacity="0" result="BackgroundImageFix"/>
<feBlend mode="normal" in="SourceGraphic" in2="BackgroundImageFix" result="shape"/>
<feColorMatrix in="SourceAlpha" type="matrix" values="0 0 0 0 0 0 0 0 0 0 0 0 0 0 0 0 0 0 127 0" result="hardAlpha"/>
<feOffset dy="4"/>
<feGaussianBlur stdDeviation="2"/>
<feComposite in2="hardAlpha" operator="arithmetic" k2="-1" k3="1"/>
<feColorMatrix type="matrix" values="0 0 0 0 1 0 0 0 0 1 0 0 0 0 1 0 0 0 0.25 0"/>
<feBlend mode="normal" in2="shape" result="effect1_innerShadow_31_1975"/>
</filter>
<linearGradient id="paint0_linear_31_1975" x1="13.6719" y1="0" x2="13.6719" y2="27.3438" gradientUnits="userSpaceOnUse">
<stop stop-color="#62FE71"/>
<stop offset="1" stop-color="#2BE73D"/>
</linearGradient>
<clipPath id="clip0_31_1975">
<rect width="14.8438" height="14.8438" fill="white" transform="translate(6.25 6.25)"/>
</clipPath>
</defs>
</svg>
