<svg width="18" height="13" viewBox="0 0 18 13" fill="none" xmlns="http://www.w3.org/2000/svg">
<g clip-path="url(#clip0_37_1629)">
<path d="M16.5273 1.69645C16.3328 0.973515 15.7628 0.403633 15.04 0.208969C13.7195 -0.152344 8.43729 -0.152344 8.43729 -0.152344C8.43729 -0.152344 3.15531 -0.152344 1.83479 0.195271C1.12586 0.389729 0.541969 0.973618 0.347511 1.69645C0 3.01687 0 5.75525 0 5.75525C0 5.75525 0 8.50742 0.347511 9.81404C0.542175 10.5369 1.11195 11.1068 1.83489 11.3014C3.16921 11.6628 8.4375 11.6628 8.4375 11.6628C8.4375 11.6628 13.7195 11.6628 15.04 11.3152C15.7629 11.1207 16.3328 10.5508 16.5275 9.82795C16.8749 8.50742 16.8749 5.76915 16.8749 5.76915C16.8749 5.76915 16.8888 3.01687 16.5273 1.69645ZM6.75556 8.28505V3.22544L11.148 5.75525L6.75556 8.28505Z" fill="white"/>
</g>
<defs>
<clipPath id="clip0_37_1629">
<rect width="18" height="12.375" fill="white"/>
</clipPath>
</defs>
</svg>
